<svg xmlns="http://www.w3.org/2000/svg" viewBox="0 0 38.12 44.82"><defs><style>.cls-1{fill:#555ff6;}</style></defs><title>Asset 4</title><g id="Layer_2" data-name="Layer 2"><g id="Layer_1-2" data-name="Layer 1"><rect class="cls-1" x="17.3" y="13.12" width="3.11" height="11.74"/><rect class="cls-1" x="22.77" y="16.48" width="3.11" height="8.38"/><rect class="cls-1" x="11.83" y="18.96" width="3.11" height="5.9"/><path class="cls-1" d="M9.21,35.36v9.46L17.44,38c.54.05,1.07.08,1.62.08a19.1,19.1,0,1,0-9.85-2.76ZM5.74,19.06A13,13,0,0,1,18.85,6.21,13,13,0,0,1,32,19.06a13,13,0,0,1-13.1,12.85A13,13,0,0,1,5.74,19.06Z"/></g></g></svg>