<svg xmlns="http://www.w3.org/2000/svg" viewBox="0 0 188.78 53.12"><defs><style>.cls-1{fill:#3a7abe;}.cls-2{fill:#fff;}</style></defs><title>Asset 5</title><g id="Layer_2" data-name="Layer 2"><g id="Layer_1-2" data-name="Layer 1"><path class="cls-1" d="M50.93.67a19,19,0,1,0,9.2,35.54l.28-.15V26.72l-.95,1A11.76,11.76,0,1,1,50.93,7.87a11.67,11.67,0,0,1,8.53,3.68l.95,1V3.21l-.28-.16A19,19,0,0,0,50.93.67Z"/><path class="cls-1" d="M125.56.57a19.06,19.06,0,1,0,19.06,19.06A19.06,19.06,0,0,0,125.56.57Zm0,31a11.91,11.91,0,1,1,11.91-11.91A11.91,11.91,0,0,1,125.56,31.54Z"/><rect class="cls-2" x="81.32" y="13.7" width="3.11" height="11.74"/><rect class="cls-2" x="86.79" y="17.06" width="3.11" height="8.38"/><rect class="cls-2" x="75.85" y="19.54" width="3.11" height="5.9"/><path class="cls-2" d="M73.23,35.93V45.4l8.23-6.79c.54,0,1.08.08,1.62.08a19.1,19.1,0,1,0-9.85-2.76Zm-3.47-16.3a13.11,13.11,0,0,1,26.22,0,13.11,13.11,0,0,1-26.22,0Z"/><path class="cls-2" d="M50.93.67a19,19,0,1,0,9.2,35.54l.28-.15V26.72l-.95,1A11.76,11.76,0,1,1,50.93,7.87a11.67,11.67,0,0,1,8.53,3.68l.95,1V3.21l-.28-.16A19,19,0,0,0,50.93.67Z"/><path class="cls-2" d="M125.56.57a19.06,19.06,0,1,0,19.06,19.06A19.06,19.06,0,0,0,125.56.57Zm0,31a11.91,11.91,0,1,1,11.91-11.91A11.91,11.91,0,0,1,125.56,31.54Z"/><path class="cls-2" d="M170.26,1.41a18.47,18.47,0,0,0-13.8,6.2V1.5h-7.21V53.12h7.21V32.26a18.51,18.51,0,1,0,13.8-30.85ZM169,32a12.34,12.34,0,0,1-12.31-11.42V18.76A12.35,12.35,0,1,1,169,32Z"/><path class="cls-2" d="M25.41,19.33c-2.1-1.55-5-2.59-9-3.28-3.37-.57-5.48-1.41-6.44-2.57a3.52,3.52,0,0,1-.36-4.42c1-1.68,3.46-2.65,6.78-2.65a10.18,10.18,0,0,1,7.17,2.7l.44.41L28.5,5l.09-.1-.49-.44a18.39,18.39,0,0,0-4.93-3.06A19.52,19.52,0,0,0,14.83,0,15.72,15.72,0,0,0,5.75,3.17c-2.53,1.9-4.4,5.4-4.34,8.15.07,3.61,1.26,6.11,3.74,7.84s6,2.48,8.62,2.89c4.14.64,6.43,1.66,7.24,3.18a4.94,4.94,0,0,1-.17,4.9c-1.07,1.9-3.6,2.79-7.12,2.49C9.9,32.31,7,31.26,5.08,29.52l-.44-.4L.09,33.66l-.09.1.5.44a20.19,20.19,0,0,0,5.43,3.39,22.69,22.69,0,0,0,8.63,1.63h.6a16.67,16.67,0,0,0,9.92-3.43,10.33,10.33,0,0,0,.33-16.45Z"/></g></g></svg>