<svg xmlns="http://www.w3.org/2000/svg" width="500" height="355" viewBox="0 0 500 355">
    <g fill="none" fill-rule="evenodd">
        <path fill="#FFF" fill-opacity="0" d="M0 0h500v355H0z"/>
        <g transform="translate(9)">
            <path fill="#DCEEF9" fill-rule="nonzero" d="M476.503 222.7C452.444 333.38 367.63 353.16 255.845 340.383 141.258 327.293 37.511 186.096 81.632 89.247c46.407-101.871 138.99-23.851 250.572-76.831C452.26-44.58 500.556 112.018 476.504 222.7z"/>
            <path fill="#C5E1EA" fill-rule="nonzero" d="M.104 19.645h125.384v323.731H.104z"/>
            <path fill="#A9D1DB" fill-rule="nonzero" d="M18.486 163.349h89.394v70.418H18.486z"/>
            <path fill="#8BC0C9" fill-rule="nonzero" d="M75.997 181.718H50.368l2.434-5.53h20.926z"/>
            <path fill="#A9D1DB" fill-rule="nonzero" d="M18.486 272.951h89.394v70.418H18.486z"/>
            <path fill="#8BC0C9" fill-rule="nonzero" d="M75.997 291.327H50.368l2.434-5.53h20.926z"/>
            <path fill="#BF4545" fill-rule="nonzero" d="M26.554 9.16h8.24v70.418h-8.24z"/>
            <path fill="#E1544E" fill-rule="nonzero" d="M34.783 9.16h55.279v70.418H34.783z"/>
            <path fill="#47A59C" fill-rule="nonzero" d="M39.908 16.861h8.24v70.418h-8.24z"/>
            <path fill="#5FCFC6" fill-rule="nonzero" d="M48.137 16.861h55.279v70.418H48.137z"/>
            <path fill="#E29840" fill-rule="nonzero" d="M55.028 22.557h8.24v70.418h-8.24z"/>
            <path fill="#FFC44D" fill-rule="nonzero" d="M63.256 22.557h55.279v70.418H63.256z"/>
            <path fill="#A9D1DB" fill-rule="nonzero" d="M18.486 53.741h113.018v70.418H18.486z"/>
            <path fill="#8BC0C9" fill-rule="nonzero" d="M111.11 72.11H85.483l2.44-5.53h20.92zM18.486 53.741h35.077v70.418H18.486z"/>
            <path fill="#FFB5AB" fill-rule="nonzero" d="M352.823 113.19l7.904 54.647-29.565 19.105-18.952-25.537 1.937-27.124z"/>
            <path fill="#C6CACE" fill-rule="nonzero" d="M365.852 160.553l-18.86 7.198s-11.538 9.13-13.366 15.61c0 0-7.008-13.813-13.139-16.775l-13.096-2.679 1.84 16.69 22.556 7.528 30.859-9.638 3.206-17.934z"/>
            <path fill="#BF4545" fill-rule="nonzero" d="M153.386 103.005l-1.73-4.292s-6.879 8.4-8.712 15.752c-1.833 7.35-1.52 12.035-1.52 12.035s10.16-5.211 11.238-10.736c1.08-5.524.724-12.759.724-12.759z"/>
            <g fill="#000" fill-rule="nonzero" opacity=".2">
                <path d="M87.677 89.032l8.486 4.733a1.84 1.84 0 0 0 1.692.043l8.712-4.292a1.84 1.84 0 0 1 2.6 1.993l-1.87 9.51c-.115.59.066 1.199.484 1.63l6.788 6.953a1.84 1.84 0 0 1-1.092 3.066l-9.644 1.159a1.84 1.84 0 0 0-1.398.962l-4.519 8.584a1.84 1.84 0 0 1-3.268-.08l-4.083-8.816a1.84 1.84 0 0 0-1.349-1.03l-9.577-1.637a1.84 1.84 0 0 1-.932-3.14l7.13-6.566c.44-.411.65-1.011.565-1.607l-1.404-9.613a1.84 1.84 0 0 1 2.679-1.852z"/>
                <path d="M88.468 88.186l8.486 4.733a1.84 1.84 0 0 0 1.692.043l8.712-4.292a1.84 1.84 0 0 1 2.6 1.987l-1.882 9.534a1.84 1.84 0 0 0 .484 1.625l6.787 6.953a1.84 1.84 0 0 1-1.091 3.065l-9.644 1.159a1.84 1.84 0 0 0-1.398.963l-4.52 8.583a1.84 1.84 0 0 1-3.267-.08l-4.071-8.792a1.84 1.84 0 0 0-1.35-1.03l-9.588-1.661a1.84 1.84 0 0 1-.932-3.133l7.124-6.61a1.84 1.84 0 0 0 .564-1.6l-1.404-9.614a1.84 1.84 0 0 1 2.698-1.833z"/>
                <path d="M114.716 106.91c-3.74 1.607-8.308-1.937-10.748-1.734-2.79.233-7.253 2.121-6.922 4.905.33 2.783 11.796 2.734 11.796 2.734 1.539.283 3.036.757 4.458 1.41l3.335-.398a2.146 2.146 0 0 0 1.281-3.636l-3.2-3.28z"/>
                <path d="M131.503 84.832l-.128-.116c-3.82-3.452-5.034-4.354-8.308-4.243l-4.421.527a30.043 30.043 0 0 0-8.069.822l-1.226.3c-1.882-.742-6.21-.613-7.272 1.11-2.526 4.096-6.897 11.232-8.08 13.489-1.687 3.261 7.498 3.323 9.754-.448l2.968-5.26 8.21 2.795s5.254 8.388 1.318 12.091c-3.937 3.703-9.498-.944-12.263-.717-2.765.227-7.253 2.121-6.922 4.905.331 2.783 11.778 2.728 11.778 2.728s4.366.736 6.37 2.686c2.005 1.95 12.539.251 15.01-5.249l1.281 1.061v-26.48z"/>
            </g>
            <path fill="#FFB5AB" fill-rule="nonzero" d="M158.96 105.826l-15.642-8.541s-6.744-9.847-11.968-14.55c-3.826-3.446-5.04-4.353-8.314-4.243l-4.414.528a30.043 30.043 0 0 0-8.07.821l-1.225.3c-1.883-.741-6.211-.612-7.278 1.117-2.526 4.09-6.898 11.226-8.075 13.488-1.686 3.262 7.492 3.324 9.755-.447l2.961-5.26 8.228 2.764s5.255 8.388 1.325 12.091c-3.93 3.703-9.498-.944-12.263-.717-2.765.227-7.253 2.121-6.916 4.905.337 2.783 11.797 2.747 11.797 2.747s4.359.735 6.364 2.685c2.005 1.95 12.544.252 15.01-5.248l23.74 19.681 4.984-22.121z"/>
            <path fill="#DB9735" fill-rule="nonzero" d="M87.677 87.064l8.486 4.733a1.84 1.84 0 0 0 1.698.043l8.706-4.292a1.84 1.84 0 0 1 2.57 1.968l-1.84 9.528a1.84 1.84 0 0 0 .478 1.625l6.788 6.953a1.84 1.84 0 0 1-1.086 3.066l-9.65 1.158a1.84 1.84 0 0 0-1.435.97l-4.513 8.583a1.84 1.84 0 0 1-3.274-.08l-4.077-8.816a1.84 1.84 0 0 0-1.349-1.03l-9.577-1.638a1.84 1.84 0 0 1-.938-3.139l7.174-6.573a1.84 1.84 0 0 0 .564-1.6l-1.423-9.62a1.84 1.84 0 0 1 2.698-1.84z"/>
            <path fill="#FFD140" fill-rule="nonzero" d="M88.437 86.206l8.486 4.733a1.84 1.84 0 0 0 1.698.043l8.707-4.292a1.84 1.84 0 0 1 2.6 1.986l-1.877 9.535a1.84 1.84 0 0 0 .478 1.624l6.788 6.96a1.84 1.84 0 0 1-1.085 3.065l-9.651 1.159a1.84 1.84 0 0 0-1.398.962l-4.513 8.584a1.84 1.84 0 0 1-3.274-.08l-4.077-8.822a1.84 1.84 0 0 0-1.349-1.03l-9.577-1.638a1.84 1.84 0 0 1-.938-3.133l7.125-6.61a1.803 1.803 0 0 0 .564-1.6l-1.398-9.613a1.84 1.84 0 0 1 2.691-1.833z"/>
            <path fill="#FFB5AB" fill-rule="nonzero" d="M114.685 104.937c-3.74 1.6-8.308-1.938-10.748-1.742-2.783.233-7.253 2.122-6.916 4.905.337 2.784 11.797 2.747 11.797 2.747 1.536.283 3.032.756 4.45 1.41l3.342-.398a2.152 2.152 0 0 0 1.282-3.636l-3.207-3.286z"/>
            <path stroke="#CC766D" d="M114.158 105.127c-3.636 1.085-7.891-2.122-10.22-1.932-2.784.233-7.254 2.122-6.917 4.905.337 2.784 11.797 2.747 11.797 2.747"/>
            <path fill="#EF7575" fill-rule="nonzero" d="M405.89 214.882l22.556-33.893c-4.255-7.039-26.076-31.883-65.481-27.628 0 0-4.525 20.54-29.946 29.97 0 0-18.393-9.258-26.462-29.737 0 0-16.824-6.775-29.97-7.026-66.542-1.257-124.93-47.855-124.93-47.855s-1.08 9.577-2.796 14.623a44.826 44.826 0 0 1-7.462 13.225c53.612 70.252 125.562 74.833 125.562 74.833s-10.33 81.545-20.448 152.858l169.922-.117c-14.494-69.644-10.546-139.253-10.546-139.253z"/>
            <path fill="#BF4545" fill-rule="nonzero" d="M414.94 306.563h-7.732s5.781 10.767 11.287 15.972a47.07 47.07 0 0 0 12.19 8.075s-.724-13.489-5.01-17.168c-4.286-3.678-10.736-6.879-10.736-6.879z"/>
            <path fill="#FFB5AB" fill-rule="nonzero" d="M400.371 317.845s-11.312 11.876-9.503 17.884c1.809 6.01 17.118 16.39 17.474 16.42.356.03 9.626-6.242 12.876-7.308 3.25-1.067-2.281-6.132-8.351-3.244-6.07 2.888-7.818-2.354-7.818-2.354s3.68-2.974 8.584-6.812c4.905-3.838 4.384-11.766 4.384-11.766l5.708-4.384-9.865-9.718-13.489 11.282z"/>
            <path fill="#EF7575" fill-rule="nonzero" d="M393.333 185.225l24.316-16.002s45.936 44.372 54.96 73.317c9.026 28.946-41.925 88.119-41.925 88.119s-5.39-10.883-8.583-14.519c-3.195-3.636-14.893-9.577-14.893-9.577s26.235-30.773 23.617-46.996c-3.335-20.613-37.364-35.966-37.364-35.966l-.128-38.376z"/>
            <path stroke="#BF4545" d="M407.208 198.555l-1.938 31.772"/>
            <path stroke="#C5E1EA" stroke-width="3" d="M.104 354.13h433.15"/>
            <path fill="#000" fill-rule="nonzero" d="M336.042 123.367l-21.987 13.544-1.447 18.921 28.572-18.05 12.919-25.69z" opacity=".2"/>
            <path fill="#000035" fill-rule="nonzero" d="M326.582 80.503l-3.232-41.079s-11.097 2.495-13.672 16.88c-2.575 14.383-.313 25.873 7.762 30.343 8.075 4.47 9.142-6.144 9.142-6.144z"/>
            <path fill="#FFB5AB" fill-rule="nonzero" d="M363.461 83.998l1.226 17.64-6.253 16.144s-10.38 27.878-37.144 22.477c-26.763-5.402-14.948-39.798-14.948-39.798s8.688-26.322 9.547-36.917c.858-10.594 33.31-5.475 33.31-5.475L363.462 84z"/>
            <path stroke="#CC766D" stroke-linecap="round" stroke-linejoin="round" d="M358.458 117.8a37.487 37.487 0 0 1-2.452 5.015c-4.452 7.756-15.249 21.38-34.685 17.462a24.323 24.323 0 0 1-7.548-2.783"/>
            <path fill="#000035" fill-rule="nonzero" d="M361.88 107.72l9.674-4.451c7.358-1.607 16.966-11.846 19.817-20.546 5.334-16.297-6.806-20.993-6.806-20.993.527-29.54-49.872-47.56-67.622-25.274 0 0-7.91 8.805-3.746 17.42 3.9 8.074 23.434 15.205 30.957 16.039 7.523.834 14.715 2.176 16.45 8.075a9.252 9.252 0 0 1-2.023 8.675s4.837 3.826 2.274 8.43c-4.433 7.996 1.024 12.625 1.024 12.625z"/>
            <path fill="#000035" fill-rule="nonzero" d="M345.43 99.455l19.846 2.318.852-1.294-20.325-3.36z"/>
            <path fill="#FFB5AB" fill-rule="nonzero" d="M359.182 107.739s4.028-10.24 10.968-8.376c6.94 1.864 2.116 13.55 2.116 13.55s-3.422 8.492-10.945 8.284c-7.523-.209-4.61-8.744-4.61-8.744"/>
            <path stroke="#CC766D" stroke-linecap="round" stroke-linejoin="round" d="M364.84 115.102c5.329-3.188 4.985-11.527.356-10.717a4.513 4.513 0 0 1-.613 4.592"/>
            <path stroke="#000035" stroke-linecap="round" stroke-linejoin="round" stroke-width="5" d="M346.557 84.556s-3.679-5.168-8.829-5.591M316.097 75.605s3.955-2.643 9.534.423"/>
            <ellipse cx="332.736" cy="92.85" fill="#000035" fill-rule="nonzero" rx="3.225" ry="2.342" transform="rotate(-70.62 332.736 92.85)"/>
            <ellipse cx="314.63" cy="87.812" fill="#000035" fill-rule="nonzero" rx="3.225" ry="2.342" transform="rotate(-70.62 314.63 87.812)"/>
            <ellipse cx="332.984" cy="94.56" fill="#FFF" fill-rule="nonzero" rx="1.128" ry="1" transform="rotate(-70.62 332.984 94.56)"/>
            <ellipse cx="315.035" cy="89.157" fill="#FFF" fill-rule="nonzero" rx="1.128" ry="1" transform="rotate(-70.62 315.035 89.157)"/>
            <path stroke="#CC766D" stroke-linecap="round" stroke-linejoin="round" d="M321.376 93.968a53.434 53.434 0 0 1-8.203 13.587 2.085 2.085 0 0 0 .27 2.949c1.416 1.146 3.862 2.268 7.271.827"/>
            <path fill="#000035" fill-rule="nonzero" d="M329.451 110.939c.294.098.613.19.895.27 3.296.78 6.769.03 9.448-2.042a16.585 16.585 0 0 0 5.022-19.853 11.239 11.239 0 0 0-7.358-6.284c-6.523-1.65-13.427 3.329-15.389 11.097-1.858 7.407 1.422 14.715 7.382 16.812zm8.584-26.616a10.319 10.319 0 0 1 5.818 5.457 15.512 15.512 0 0 1-4.678 18.51 10.172 10.172 0 0 1-8.553 1.87c-5.941-1.508-9.301-8.583-7.48-15.77 1.821-7.185 8.136-11.814 14.102-10.312.264.068.523.15.779.245h.012zM304.724 103.686c.294.104.613.196.895.276 3.296.78 6.768.03 9.448-2.042a16.554 16.554 0 0 0 4.985-19.853 11.239 11.239 0 0 0-7.358-6.285c-6.517-1.649-13.427 3.33-15.39 11.098-1.845 7.407 1.436 14.709 7.42 16.806zm8.583-26.61a10.319 10.319 0 0 1 5.819 5.457 15.488 15.488 0 0 1-4.678 18.51 10.184 10.184 0 0 1-8.547 1.87c-5.947-1.508-9.301-8.584-7.486-15.77 1.814-7.185 8.136-11.82 14.101-10.312.256.069.508.15.755.245h.036z"/>
            <path fill="#000035" fill-rule="nonzero" d="M320.162 94.023c1.067-.251 2.318.613 2.33.613l.613-.889c-.067-.043-1.655-1.14-3.206-.766l.263 1.042z"/>
            <path stroke="#CC766D" stroke-linecap="round" stroke-linejoin="round" d="M309.065 119.388s3.813 5.85 11.907 4.188"/>
            <path fill="#000035" fill-rule="nonzero" d="M331.364 32.765l-6.616-2.722s3.728-18.712 23.71-13.078c0 0-10.276 7.542-.153 10.178l-16.941 5.622z"/>
            <path stroke="#BF4545" d="M310.242 169.303s8.363 19.141 22.47 23.298c0 0 15.593-3.255 25.697-18.73"/>
            <path fill="#000" fill-rule="nonzero" d="M299.573 176.016l-.318 3.164s1.594.515 3.868-1.226c2.275-1.742 15.028-7.97 22.619-6.91 0 0-1.509-1.987-2.41-2.422-.901-.435-13.182 1.275-13.182 1.275l-10.577 6.12zM364.062 184.36l-1.361 2.453a3.323 3.323 0 0 1-3.36-2.207c-.858-2.452-7.082-12.937-13.378-16.107l1.03-.748c.9.154 12.127 6.696 12.127 6.696l4.942 9.914z" opacity=".2"/>
            <path fill="#D5DAE0" fill-rule="nonzero" d="M357.998 148.99s8.81 1.312 9.872 12.587c.87 9.228-3.066 20.926-4.495 24.88a.57.57 0 0 1-1.06 0c-1.447-3.378-5.978-12.384-15.329-18.724 0 0 6.867-2.992 10.663-5.66a4.053 4.053 0 0 0 1.674-3.905l-1.325-9.178zM313.215 147.267l-.613 8.915a3.489 3.489 0 0 0 1.3 2.967c2.704 2.177 8.786 7.07 11.484 11.435 0 0-18.173-1.913-25.138 8.449a.497.497 0 0 1-.908-.313c.43-6.278 2.735-25.635 13.875-31.453z"/>
            <path fill="#000" fill-rule="nonzero" d="M405.626 230.327c10.061 6.42 23.838 17.1 25.291 29.957 1.527 13.526-14.42 33.508-19.62 41.172 0 0 23.078-12.52 25.53-38.731 2.453-26.212-31.201-32.398-31.201-32.398zM268.598 195.042c-53.587-8.541-126.488-67.984-127.174-68.548 52.41 69.326 125.04 74.863 125.04 74.863.292.02.585.02.877 0l1.257-6.315z" opacity=".2"/>
            <path stroke="#BF4545" d="M269.567 190.112s-1.471 7.725-2.354 11.41"/>
        </g>
    </g>
</svg>
