<svg xmlns="http://www.w3.org/2000/svg" width="500" height="355" viewBox="0 0 500 355">
    <g fill="none" fill-rule="evenodd">
        <path fill="#FFF" fill-opacity="0" d="M0 0h500v355H0z"/>
        <g transform="translate(37)">
            <path fill="#DCEEF9" fill-rule="nonzero" d="M349.658 53.302c49.717 71.8 18.62 179.443-64.196 247.346-84.893 69.608-238.76 67.432-266.737-10.737-29.427-82.219 79.306-104.458 122.852-205.378 46.84-108.583 158.369-103.025 208.08-31.23z"/>
            <path fill="#C5E1EA" fill-rule="nonzero" d="M42.96 269.029l-24.688 21.938a5.22 5.22 0 0 0-1.653 4.977l6.653 32.373a5.22 5.22 0 0 0 3.48 3.921l31.324 10.412a5.255 5.255 0 0 0 5.14-1.055l24.71-21.979a5.261 5.261 0 0 0 1.653-4.983l-6.63-32.327a5.22 5.22 0 0 0-3.48-3.921l-31.324-10.412a5.22 5.22 0 0 0-5.185 1.056zm13.921 50.036a14.275 14.275 0 1 1 10.36-15.726 14.281 14.281 0 0 1-10.366 15.726h.006z"/>
            <path fill="#838DB5" fill-rule="nonzero" d="M114.07 296.13l-6.433 5.736s-1.618 2.668 10.116-.632c11.735-3.3-3.683-5.105-3.683-5.105z"/>
            <path fill="#FFB5AB" fill-rule="nonzero" d="M123.722 280.688l-8.457 17.286 2.204 11.85s46.945-12.25 53.134-13.051l-2.175-21.393-44.706 5.308z"/>
            <path fill="#838DB5" fill-rule="nonzero" d="M299.708 233.685l11.857-2.494s1.612 2.413-5.343 6.839c-4.049 2.57-6.514-4.345-6.514-4.345z"/>
            <path fill="#FFB5AB" fill-rule="nonzero" d="M275.757 239.892l-10.51 21.016 8.793 38.168 47.392-41.173-16.515-28.307z"/>
            <path fill="#FFB5AB" fill-rule="nonzero" d="M359.252 206.503s-15.082 18.562-20.465 24.479c-15.662 17.187-47.942 43.888-47.942 43.888l-14.983 15.662 10.94 23.162s24.844 20.047 45.001-5.685c20.157-25.732 44.236-86.204 44.236-86.204l-16.787-15.302z"/>
            <path stroke="#CC766D" stroke-linecap="round" stroke-linejoin="round" d="M316.872 252.27s-19.345 16.34-24.06 22.785"/>
            <path fill="#000" fill-rule="nonzero" d="M331.797 307.974c17.037-21.747 36.875-68.314 42.606-82.207l-3.764-1.81s-32.148 85.003-60.049 88.298c-23.974 2.825-30.958-64.63-30.958-64.63l-9.426 5.922 13.782 54.212 2.785 5.9s24.844 20.047 45.024-5.685z" opacity=".1"/>
            <path fill="#5A43C9" fill-rule="nonzero" d="M171.7 166.218s-31.26 10.412-43.053 20.302c-11.793 9.89-17.582 21.462-18.44 45.03-.859 23.569-2.576 70.34-2.576 70.34s27.611-16.7 54.201-20.779l-1.45 38.238-10.928.847-8.26 34.224 155.04-.25-9.432-45.575-10.9-54.16s21.294-20.384 35.663-23.267l-29.584-50.466s-20.708-22.947-53.888-16.514l-17.442 20.076-2.32.191-2.32-.191-34.312-18.046z"/>
            <path fill="#000" fill-rule="nonzero" d="M186.711 195.482l-.185 3.608s1.792.58 4.472-2.396c1.473-1.647 10.232-10.713 16.822-10.493l-1.7-2.755-14.066 6.09-5.343 5.946zM232.757 183.498l2.146 3.103s-1.189 1.48-5.122.238c-2.163-.684-14.612-4.113-20.105-.423l-.075-3.342 15.314-2.024 7.842 2.448zM160.388 235.82s9.908 39.92 4.994 66.585c-4.913 26.666-9.211 51.626-9.211 51.626l-14.977.377 7.512-30.238 12.64-30.077s.631-15.557.4-23.202c-.633-21.028-1.358-35.071-1.358-35.071z" opacity=".2"/>
            <path stroke="#000" d="M160.388 235.82s1.45 24.119 1.45 44.508M208.957 192.93s2.042 29.914 3.863 40.204M266.372 207.46s7.111 30.054 9.53 46.986" opacity=".3"/>
            <path fill="#000" fill-rule="nonzero" d="M286.668 188.713l-54.114-16.996-2.024-6.543 52.635 17.854z" opacity=".2"/>
            <path fill="#80ADB7" fill-rule="nonzero" d="M409.242 185.586l-304.047-84.655-7.216.354-4.008 22.727 306.674 96.64s20.146 6.096 24.322-10.164c.308-1.16 1.462-8.173.98-10.783-2.633-14.154-16.705-14.119-16.705-14.119zm-1.247 18.522c-1.468 5.4-7.367 8.498-13.18 6.926-5.812-1.572-9.333-7.234-7.87-12.652 1.461-5.417 7.366-8.503 13.178-6.926 5.813 1.578 9.334 7.251 7.872 12.652z"/>
            <path fill="#C6DEE5" fill-rule="nonzero" d="M409.474 181.247L105.427 96.616l-7.21.354-4.026 22.703 306.675 96.64s20.14 6.096 24.322-10.164c5.023-19.536-15.714-24.902-15.714-24.902zm-1.247 18.522c-1.462 5.4-7.361 8.498-13.173 6.92-5.813-1.578-9.34-7.228-7.872-12.628s7.361-8.504 13.173-6.926c5.813 1.578 9.34 7.233 7.872 12.634z"/>
            <path fill="#80ADB7" fill-rule="nonzero" d="M63.65 53.9c-11.572-2.587-35.79-.32-35.79-.32l-.597.946.104 4.844 36.545 17.587a7.848 7.848 0 0 1 3.985 4.426l8.875 24.769-33.267 20.006L4.06 115.236l-3.254 3.271-.626 4.64s20.215 19.276 37.263 23.087c29.74 6.642 59.921-4.153 66.383-33.063C110.288 84.26 93.39 60.54 63.65 53.9z"/>
            <path fill="#C6DEE5" fill-rule="nonzero" d="M64.207 49.375c-11.572-2.581-36.172.371-36.172.371l-.772 4.78 41.005 19.722a5.476 5.476 0 0 1 2.778 3.092l7.588 21.155a5.487 5.487 0 0 1-2.645 6.723l-28.395 14.6a10.14 10.14 0 0 1-7.343.76l-35.605-9.86-3.88 7.94s20.21 19.276 37.263 23.081c29.74 6.648 59.526-5.36 65.988-34.276 6.462-28.916-10.046-51.44-39.81-58.088z"/>
            <path stroke="#80ADB7" d="M105.398 96.72s-.864 14.003-6.34 24.212"/>
            <path fill="#FFB5AB" fill-rule="nonzero" d="M223.006 158.671l-11.37-37.901-31.52 3.648-2.355 3.643 1.16 38.708s2.036 6.508 26.869 17.454c.553.232.976.694 1.16 1.264.748 2.541 1.995 7.75 1.995 7.657 0-.092.325-4.431.69-7.013a3.161 3.161 0 0 1 .987-1.862c4.176-3.358 11.723-12.042 12.384-25.598z"/>
            <path fill="#000" fill-rule="nonzero" d="M206.7 146.606l-28.434-1.926.655 21.538z" opacity=".2"/>
            <path fill="#000035" fill-rule="nonzero" d="M172.001 135.828a12.048 12.048 0 0 0-.737-2.39l-2.198-5.476-4.548-5.893-2.825 2.506a27.687 27.687 0 0 1 6.961 9.745c.058.412 3.347 1.508 3.347 1.508z"/>
            <path fill="#FFB5AB" fill-rule="nonzero" d="M169.014 88.135l-9.595 13.278 1.201 8.649s4.93 21.242 10.366 28.092c5.638 7.106 17.93 13.22 30.163 10.441 15.082-3.428 22.043-15.418 19.345-26.398-2.842-11.718-8.556-17.797-10.696-28.157a39.404 39.404 0 0 0-6.508-14.472l-34.276 8.567z"/>
            <path fill="#000" fill-rule="nonzero" d="M195.523 102.179c7.889-2.158 12.32-4.223 14.71-6.033-.18-.685-.348-1.38-.493-2.1a39.253 39.253 0 0 0-5.279-12.674l-40.97 15.157-.87.394-3.242 4.49.858 1.334c7.93 1.415 20.506 3.475 35.286-.568z" opacity=".1"/>
            <path stroke="#CC766D" stroke-linecap="round" stroke-linejoin="round" d="M178.173 144.378c5.586 3.643 16.085 5.8 22.959 4.223 3.48-.789 12.048-4.437 14.78-8.359"/>
            <path fill="#000035" fill-rule="nonzero" d="M155.458 96.529l-3.684 5.307s2.489 11.567 8.394 14.392l1.74 1.026s1.711-1.972 1.624-6.079a19.548 19.548 0 0 0 2.06-11.984l-10.134-2.662z"/>
            <path stroke="#000035" stroke-linecap="round" stroke-linejoin="round" stroke-width="3" d="M178.173 106.686s2.407-3.597 6.433-3.939M207.339 99.65s-3.748-2.164-7.512-.697"/>
            <ellipse cx="186.571" cy="111.629" fill="#000035" fill-rule="nonzero" rx="1.845" ry="3.092" transform="rotate(-14.59 186.57 111.629)"/>
            <ellipse cx="186.704" cy="113.237" fill="#FFF" fill-rule="nonzero" rx="1" ry="1" transform="rotate(-14.59 186.704 113.237)"/>
            <ellipse cx="203.851" cy="108.205" fill="#000035" fill-rule="nonzero" rx="1.848" ry="3.097" transform="rotate(-14.452 203.85 108.205)"/>
            <ellipse cx="203.755" cy="108.8" fill="#FFF" fill-rule="nonzero" rx="1" ry="1" transform="rotate(-14.59 203.755 108.8)"/>
            <path fill="#FFB5AB" fill-rule="nonzero" d="M164.425 117.01s-4.02-8.735-10.51-6.38c-6.491 2.355-5.012 8.736-2.634 11.822 2.378 3.086 10.923 6.74 14.502 0"/>
            <path stroke="#CC766D" stroke-linecap="round" stroke-linejoin="round" d="M154.152 116.82s1.584-3.168 4.107-1.457c0 0-2.697.772-1.369 3.51 1.329 2.738 3.382 2.442 4.583 1.543"/>
            <path fill="#FFF" fill-rule="nonzero" d="M194.618 129.824s10.795-1.525 15.91-6.038c0 0 3.081 7.918-4.448 10.8-7.43 2.849-11.462-4.762-11.462-4.762z"/>
            <path fill="#8F95BE" fill-rule="nonzero" d="M178.451 150.817s-9.455 7.001-7.61 18.255c1.438 8.735 10.128 23.075 13.956 29.073a2.036 2.036 0 0 0 3.428 0c2.669-4.06 8.603-11.526 17.582-13.922 0 0-20.407-10.644-26.84-19.252l-.516-14.154zM218.65 144.146s13.225 7.541 14.757 22.275c.945 9.118 1.705 15.337 2.146 18.747a1.59 1.59 0 0 1-2.32 1.625c-4.64-2.32-14.502-6.236-22.623-2.524 0 0 12.065-16.079 11.903-25.406l-3.863-14.717z"/>
            <path fill="#000" fill-rule="nonzero" d="M360.22 166.925s2.646 8.18 1.567 12.814c-1.08 4.635-5.714 16.822-4.571 18.829 0 0 .963 3.127 3.005 3.01 2.041-.115 5.296-25.627 5.296-25.627s-2.036-9.809-5.296-9.026z" opacity=".2"/>
            <path fill="#FFC44D" fill-rule="nonzero" d="M351.433 205.517c.852 3.782 4.872 16.52 21.433 23.458a2.506 2.506 0 0 0 3.161-1.073c2.988-5.33 11.312-20.737 13.423-30.657 2.587-12.152 3.788-28.034-2.645-33.446 0 0-4.211-3.132-8.544-2.407a7.622 7.622 0 0 0-5.714-.482 9.397 9.397 0 0 0-8.185.72s-3.608-1.92-12.181 3.793l9.142 2.703s2.32 8.243 1.264 13c-1.055 4.756-3.608 11.305-3.851 16.12l-6.73 6.473a1.92 1.92 0 0 0-.573 1.798z"/>
            <path stroke="#E29840" d="M364.362 161.63s4.786 1.206 7.825 10.98M372.443 160.87s4.78 1.206 7.819 10.98M378.365 161.392s4.786 1.2 7.82 10.98M359.252 197.802s3.608 7.698 11.387 11.671"/>
            <path fill="#FFB5AB" fill-rule="nonzero" d="M115.532 299.58s3.364 21.312 6.42 26.945c3.058 5.632 10.773 25.087 53.553 16.241s62.565-13.341 62.565-13.341l-2.157-26.51s-14.253-.243-28.424-2.116c-14.588-1.92-32.361-6.683-42.57-6.862-7.802-.145-49.387 5.644-49.387 5.644z"/>
            <path fill="#000" fill-rule="nonzero" d="M233.035 328.735s-26.416 3.683-42.292 7.123c-15.876 3.44-40.738 8.95-56.005-1.897-8.893-6.311-13.8-28.006-15.216-38.453a19.647 19.647 0 0 0-4.402 2.228s3.776 23.168 6.833 28.8c3.057 5.633 10.772 25.088 53.552 16.242 30.743-6.38 49.624-10.476 57.803-12.286l-.273-1.757z" opacity=".1"/>
            <path fill="#FFC44D" fill-rule="nonzero" d="M302.336 322.081a13.341 13.341 0 0 0-1.595-2.598c.177-.971.278-1.955.301-2.941-.156-1.74-2.18-3.516-2.18-3.516a5.4 5.4 0 0 0 .533-3.109c-.33-1.531-2.001-2.935-2.001-2.935a4.13 4.13 0 0 0 .823-3.62c-.348-1.392-3.207-3.074-8.318-3.996-5.11-.922-15.62-1.096-16.619-1.114-.429.081-16.531 2.657-17.158 2.674l-11.601.377-19.862-.475s-4.246 19.606 4.774 32.988l25.947-3.643c3.898 2.077 16.821 3.092 22.622 2.222 0 0 2.9 3.01 10.859.655 15.772-4.663 14.009-9.443 13.475-10.969z"/>
            <path stroke="#E29840" d="M301.199 320.347c-.25-.493-.458-.864-.458-.864.177-.971.278-1.955.301-2.941-.156-1.74-2.18-3.516-2.18-3.516a5.4 5.4 0 0 0 .533-3.109c-.33-1.531-2.001-2.935-2.001-2.935a4.13 4.13 0 0 0 .823-3.62c-.348-1.392-3.207-3.074-8.318-3.996-1.42-.255-3.242-.453-5.157-.61M224.514 302.405s-2.842 17.368 3.69 29.004M278.53 332.377c8.556-.655 11.996-4.425 19.954-5.609M300.74 319.483s-4.721-1.636-15.452-.047M298.484 312.73s-4.385-1.914-15.116-.324M297.394 306.982s-4.223-2.778-14.954-1.195"/>
            <path stroke="#CC766D" stroke-linecap="round" stroke-linejoin="round" d="M161.113 294.093s-14.664.702-22.222 3.916M197.767 100.821s-2.047 2.123-1.218 4.397c.58 1.566 4.316 7.54 6.59 11.132a2.83 2.83 0 0 1-1.827 4.304 9.705 9.705 0 0 1-2.64.098"/>
            <path fill="#E29840" fill-rule="nonzero" d="M169.188 94.133c-.36.232-5.656 7.703-5.656 7.703s24.659-1.16 39.996-6.48c15.336-5.318 25.61-9.361 17.175-11.676a47.884 47.884 0 0 0-15.998-1.485s-19.502 1.334-35.517 11.938z"/>
            <path fill="#FFC44D" fill-rule="nonzero" d="M151.797 101.836s4.026.772 11.735 0c0 0 18.04-14.101 42.211-19.722 0 0-2.668-8.214-4.443-11.729-2.784-5.51-16.66-17.982-36.022-7.396-19.977 10.911-20.36 24.41-13.48 38.847z"/>
            <path stroke="#E29840" d="M166.734 61.963s-10.592 9.86-10.064 17.61c.528 7.75 5.684 22.373 5.684 22.373M170.54 60.605s17.848 0 23.364 5.737c5.517 5.737 7.733 17.06 7.733 17.06"/>
            <ellipse cx="168.254" cy="60.008" fill="#E29840" fill-rule="nonzero" rx="3.051" ry="2.86"/>
            <path stroke="#000035" stroke-linecap="round" stroke-linejoin="round" d="M202.663 104.528s1.688-1.48 4.484-.5M185.493 109.052s1.682-1.485 4.484-.504"/>
            <path stroke="#CC964E" d="M354.176 212.687a36.683 36.683 0 0 0 18.69 16.288"/>
            <path fill="#A9D1DB" fill-rule="nonzero" d="M365.807 64.457v-7.889a5.354 5.354 0 0 0-5.354-5.354h-.911a5.296 5.296 0 0 1-5.122-3.805 47.844 47.844 0 0 0-4.35-10.511 5.296 5.296 0 0 1 .922-6.323l.644-.644a5.354 5.354 0 0 0 0-7.54l-5.575-5.575a5.354 5.354 0 0 0-7.575 0l-.639.638a5.308 5.308 0 0 1-6.322.928 47.89 47.89 0 0 0-10.517-4.35 5.302 5.302 0 0 1-3.8-5.128v-.905a5.354 5.354 0 0 0-5.353-5.354h-7.9A5.354 5.354 0 0 0 298.6 8v.905a5.302 5.302 0 0 1-3.8 5.128 47.774 47.774 0 0 0-10.516 4.35 5.308 5.308 0 0 1-6.322-.928l-.644-.638a5.348 5.348 0 0 0-7.57 0l-5.575 5.575a5.348 5.348 0 0 0 0 7.54l.638.644a5.308 5.308 0 0 1 .929 6.323 47.844 47.844 0 0 0-4.35 10.51 5.302 5.302 0 0 1-5.129 3.806h-.905a5.354 5.354 0 0 0-5.354 5.354v7.889a5.348 5.348 0 0 0 5.354 5.348h.905a5.302 5.302 0 0 1 5.128 3.805 47.89 47.89 0 0 0 4.35 10.517 5.308 5.308 0 0 1-.928 6.323l-.638.638a5.348 5.348 0 0 0 0 7.57l5.575 5.58a5.354 5.354 0 0 0 7.57 0l.644-.644a5.296 5.296 0 0 1 6.322-.922 48.058 48.058 0 0 0 10.517 4.35 5.296 5.296 0 0 1 3.8 5.122v.905a5.354 5.354 0 0 0 5.353 5.354h7.89a5.354 5.354 0 0 0 5.353-5.354v-.905a5.296 5.296 0 0 1 3.8-5.122 48.174 48.174 0 0 0 10.516-4.35 5.296 5.296 0 0 1 6.323.922l.638.644a5.366 5.366 0 0 0 7.576 0l5.574-5.58a5.354 5.354 0 0 0 0-7.57l-.644-.638a5.296 5.296 0 0 1-.91-6.34 47.89 47.89 0 0 0 4.35-10.5 5.296 5.296 0 0 1 5.122-3.805h.91a5.354 5.354 0 0 0 5.355-5.348z"/>
            <path fill="#C5E1EA" fill-rule="nonzero" d="M366.323 62.108v-7.89a5.36 5.36 0 0 0-5.354-5.353h-.91a5.302 5.302 0 0 1-5.123-3.8 47.774 47.774 0 0 0-4.35-10.516 5.29 5.29 0 0 1 .928-6.323l.638-.638a5.366 5.366 0 0 0 0-7.576l-5.575-5.574a5.366 5.366 0 0 0-7.575 0l-.638.638a5.296 5.296 0 0 1-6.323.928 47.89 47.89 0 0 0-10.517-4.35 5.302 5.302 0 0 1-3.799-5.122V5.62a5.36 5.36 0 0 0-5.354-5.354h-7.889a5.354 5.354 0 0 0-5.354 5.354v.91a5.302 5.302 0 0 1-3.8 5.123 47.774 47.774 0 0 0-10.516 4.35 5.296 5.296 0 0 1-6.323-.928l-.643-.638a5.354 5.354 0 0 0-7.541 0l-5.575 5.574a5.354 5.354 0 0 0 0 7.576l.638.638a5.308 5.308 0 0 1 .928 6.323 47.774 47.774 0 0 0-4.35 10.516 5.302 5.302 0 0 1-5.128 3.8h-.905a5.36 5.36 0 0 0-5.354 5.354v7.889a5.354 5.354 0 0 0 5.354 5.354h.905a5.302 5.302 0 0 1 5.128 3.799 47.774 47.774 0 0 0 4.304 10.528 5.308 5.308 0 0 1-.928 6.323l-.638.638a5.354 5.354 0 0 0 0 7.576l5.574 5.574a5.348 5.348 0 0 0 7.541 0l.644-.638a5.296 5.296 0 0 1 6.37-.91 47.774 47.774 0 0 0 10.516 4.35 5.302 5.302 0 0 1 3.8 5.122v.91a5.354 5.354 0 0 0 5.353 5.354h7.889a5.36 5.36 0 0 0 5.354-5.354v-.91a5.302 5.302 0 0 1 3.8-5.122 47.89 47.89 0 0 0 10.516-4.35 5.296 5.296 0 0 1 6.323.927l.638.638a5.354 5.354 0 0 0 7.575 0l5.575-5.574a5.366 5.366 0 0 0 0-7.576l-.638-.638a5.29 5.29 0 0 1-.928-6.322 47.774 47.774 0 0 0 4.35-10.517 5.302 5.302 0 0 1 5.122-3.8h.91a5.354 5.354 0 0 0 5.355-5.382z"/>
            <circle cx="308.427" cy="58.163" r="29.392" stroke="#A9D1DB"/>
            <circle cx="308.427" cy="58.163" r="16.95" fill="#A9D1DB" fill-rule="nonzero"/>
            <path fill="#000" fill-rule="nonzero" d="M279.632 251.075l-1.74 1.543-2.007 1.84s-3.272-17.466-4.472-23.267c-1.23-5.952-5.221-23.73-5.221-23.73s9.09 15.737 13.44 43.614z" opacity=".2"/>
            <path stroke="#C5E1EA" stroke-width="3" d="M85.374 354.403h277.05"/>
        </g>
    </g>
</svg>
