<?xml version="1.0" encoding="utf-8"?>
<!-- Generator: Adobe Illustrator 23.0.5, SVG Export Plug-In . SVG Version: 6.00 Build 0)  -->
<svg version="1.1" id="Layer_1" xmlns="http://www.w3.org/2000/svg" xmlns:xlink="http://www.w3.org/1999/xlink" x="0px" y="0px"
	 viewBox="0 0 25 25" style="enable-background:new 0 0 25 25;" xml:space="preserve">
<style type="text/css">
	.st0{fill-rule:evenodd;clip-rule:evenodd;fill:#0BD2C7;}
	.st1{fill:#007F76;}
</style>
<path class="st0" d="M24.9,12.3c0,6.8-5.5,12.3-12.3,12.3S0.4,19.1,0.4,12.3C0.4,5.5,5.9,0,12.7,0S24.9,5.5,24.9,12.3"/>
<path class="st1" d="M17.2,11.1c0-0.2,0.1-0.3,0.1-0.4c0.1-0.3,0.4-0.5,0.8-0.5c0.4,0,0.6,0.2,0.8,0.5C19,10.8,19,11,19,11.1
	c0,0.1,0,0.2,0,0.2c0,0.4,0.3,0.8,0.7,0.8c0.4,0,0.8-0.3,0.8-0.7v0c0-0.4-0.1-0.9-0.3-1.2c-0.4-0.9-1.1-1.4-2.2-1.4
	s-1.8,0.6-2.2,1.4c-0.2,0.4-0.3,0.8-0.3,1.3v0c0,0.4,0.3,0.7,0.8,0.7c0.4,0,0.7-0.3,0.7-0.8C17.2,11.3,17.2,11.2,17.2,11.1z
	 M6.3,11.1c0-0.2,0.1-0.3,0.1-0.4c0.1-0.3,0.4-0.5,0.8-0.5c0.4,0,0.6,0.2,0.8,0.5C8,10.8,8.1,11,8.1,11.1c0,0.1,0,0.2,0,0.2
	c0,0.4,0.3,0.8,0.7,0.8c0.4,0,0.8-0.3,0.8-0.7v0c0-0.4-0.1-0.9-0.3-1.2C9,9.2,8.2,8.7,7.2,8.7c-1.1,0-1.8,0.6-2.2,1.4
	c-0.2,0.4-0.3,0.8-0.3,1.3v0c0,0.4,0.3,0.7,0.8,0.7c0.4,0,0.7-0.3,0.7-0.8C6.3,11.3,6.3,11.2,6.3,11.1z M16.3,15.3
	c-0.2,0.5-0.4,1-0.8,1.4c-0.7,0.9-1.6,1.4-2.9,1.4c-1.3,0-2.2-0.5-2.9-1.3c-0.2-0.3-0.4-0.6-0.6-0.9C9.1,15.6,9,15.5,9,15.3
	c-0.1-0.4-0.5-0.6-0.9-0.5c-0.4,0.1-0.6,0.5-0.5,0.9l0,0c0.1,0.5,0.5,1.2,1,1.9c1,1.2,2.3,1.9,4.1,1.9c1.8,0,3.1-0.7,4.1-1.9
	c0.6-0.7,0.9-1.4,1-1.9c0.1-0.4-0.1-0.8-0.5-0.9S16.5,14.9,16.3,15.3C16.3,15.3,16.3,15.3,16.3,15.3z"/>
</svg>
