<svg xmlns="http://www.w3.org/2000/svg" width="20" height="20" viewBox="0 0 20 20">
    <g fill="none" fill-rule="evenodd">
        <path stroke="#494A7F" stroke-linecap="round" stroke-linejoin="round" stroke-width="1.5" d="M18.676 9.938a8.738 8.738 0 1 1-17.476 0 8.738 8.738 0 0 1 17.476 0z"/>
        <path fill="#494A7F" d="M7.68 6.637c0-.342.204-.668.611-.978.408-.31.954-.464 1.638-.464.767 0 1.378.195 1.834.586.457.392.685.885.685 1.48 0 .204-.03.403-.092.599-.06.196-.126.36-.195.495-.07.135-.171.285-.306.453a4.871 4.871 0 0 1-.3.348l-.317.306-.233.195c-.277.22-.448.44-.513.66-.065.22-.098.539-.098.954 0 .294-.204.44-.611.44-.204 0-.349-.049-.434-.146-.086-.098-.129-.277-.129-.538 0-.848.245-1.492.734-1.932l.354-.294c.188-.163.329-.29.422-.385a1.66 1.66 0 0 0 .282-.415c.093-.184.14-.373.14-.569 0-.334-.114-.593-.342-.776-.228-.184-.534-.275-.917-.275-.27 0-.493.044-.673.134-.179.09-.301.186-.366.287a1.566 1.566 0 0 1-.239.288.455.455 0 0 1-.324.134.656.656 0 0 1-.422-.153.526.526 0 0 1-.19-.434zm1.296 6.786a.81.81 0 0 1 .238-.587.78.78 0 0 1 .581-.244.8.8 0 0 1 .587.244.8.8 0 0 1 .244.587c0 .22-.081.414-.244.58a.79.79 0 0 1-.587.252.771.771 0 0 1-.58-.251.817.817 0 0 1-.24-.58z"/>
    </g>
</svg>
