<?xml version="1.0" encoding="UTF-8"?>
<svg xmlns="http://www.w3.org/2000/svg" xmlns:xlink="http://www.w3.org/1999/xlink" width="20pt" height="20pt" viewBox="0 0 20 20" version="1.1">
<g id="surface3085553">
<path style=" stroke:none;fill-rule:nonzero;fill:rgb(56.078431%,56.078431%,66.666667%);fill-opacity:1;" d="M 10 1.875 C 5.519531 1.875 1.875 5.519531 1.875 10 C 1.875 14.480469 5.519531 18.125 10 18.125 C 14.480469 18.125 18.125 14.480469 18.125 10 C 18.125 5.519531 14.480469 1.875 10 1.875 Z M 10 3.125 C 13.804688 3.125 16.875 6.195312 16.875 10 C 16.875 13.804688 13.804688 16.875 10 16.875 C 6.195312 16.875 3.125 13.804688 3.125 10 C 3.125 6.195312 6.195312 3.125 10 3.125 Z M 9.375 6.25 L 9.375 7.5 L 10.625 7.5 L 10.625 6.25 Z M 9.375 8.75 L 9.375 13.75 L 10.625 13.75 L 10.625 8.75 Z M 9.375 8.75 "/>
</g>
</svg>
