<svg xmlns="http://www.w3.org/2000/svg" width="50" height="50" viewBox="0 0 50 50">
    <path fill="#555FF6" fill-rule="nonzero" d="M25.188 18.835c-.606 0-1.104.161-1.492.483-.388.322-.582.786-.582 1.392 0 .606.18 1.094.54 1.463.36.37.828.654 1.406.853a24.28 24.28 0 0 0 1.932.568c.71.18 1.415.398 2.116.653.701.256 1.34.573 1.918.952.578.379 1.046.914 1.406 1.605.36.692.54 1.52.54 2.486 0 1.686-.687 3.13-2.06 4.333-1.373 1.202-3.182 1.804-5.426 1.804s-4.053-.54-5.426-1.62c-1.373-1.08-2.06-2.613-2.06-4.602h5.17c.133 1.59.948 2.386 2.444 2.386.7 0 1.25-.184 1.648-.554.397-.369.596-.838.596-1.406s-.18-1.032-.54-1.392c-.36-.36-.828-.644-1.406-.852a20.701 20.701 0 0 0-1.932-.583 19.53 19.53 0 0 1-2.116-.667c-.701-.265-1.34-.583-1.918-.952-.578-.37-1.046-.9-1.406-1.591-.36-.691-.54-1.51-.54-2.457 0-1.857.691-3.343 2.074-4.46C21.457 15.558 23.223 15 25.372 15c2.15 0 3.888.488 5.214 1.463 1.325.976 2.017 2.514 2.073 4.617h-5.284c-.076-.72-.308-1.274-.696-1.662-.388-.389-.885-.583-1.491-.583z"/>
</svg>
