<svg xmlns="http://www.w3.org/2000/svg" width="500" height="355" viewBox="0 0 500 355">
    <g fill="none" fill-rule="evenodd">
        <path fill="#FFF" fill-opacity="0" d="M0 0h500v355H0z"/>
        <g transform="translate(25)">
            <path fill="#DCEEF9" fill-rule="nonzero" d="M429.92 107.121c48.738 87.38 1.434 151.52-83.871 210.499-87.444 60.46-243.11 30.034-269.73-60.339-27.978-95.012 82.564-99.482 128.843-201.63 49.788-109.903 176.012-35.903 224.757 51.47z"/>
            <path fill="#C5E1EA" fill-rule="nonzero" d="M0 31.657h119.798v309.307H0z"/>
            <path fill="#A9D1DB" fill-rule="nonzero" d="M17.563 273.678h133.641v67.28H17.563z"/>
            <path fill="#8BC0C9" fill-rule="nonzero" d="M132.041 291.235H107.55l2.331-5.284h19.988zM17.563 273.678h33.514v67.28H17.563z"/>
            <path fill="#A9D1DB" fill-rule="nonzero" d="M17.563 168.959H135v67.28H17.563z"/>
            <path fill="#8BC0C9" fill-rule="nonzero" d="M112.657 186.51H88.164l2.332-5.284h19.987zM17.563 168.959h33.514v67.28H17.563z"/>
            <path fill="#A9D1DB" fill-rule="nonzero" d="M17.563 64.234h107.982v67.28H17.563z"/>
            <path fill="#8BC0C9" fill-rule="nonzero" d="M106.06 81.785H81.569L83.9 76.5h19.987zM17.563 64.234h33.514v67.28H17.563z"/>
            <path fill="#FFB5AB" fill-rule="nonzero" d="M295.289 115.375l14.809 50.631-25.4 22.044-21.36-21.61-1.804-25.922z"/>
            <path fill="#000" fill-rule="nonzero" d="M280.784 127.261l-18.98 15.758 1.165 18.096 24.604-20.913 8.776-26.04z" opacity=".2"/>
            <path fill="#000035" fill-rule="nonzero" d="M266.08 87.977l-8.564-38.418s-10.17 3.85-10.674 17.797c-.504 13.948 3.175 24.522 11.418 27.662 8.242 3.14 7.82-7.041 7.82-7.041z"/>
            <path fill="#FFB5AB" fill-rule="nonzero" d="M301.44 86.354l3.55 16.514-3.75 16.11s-6.08 27.767-32.12 26.25c-26.039-1.517-19.484-35.64-19.484-35.64s4.687-26.07 4.101-36.204c-.586-10.134 30.779-9.654 30.779-9.654l16.924 22.624z"/>
            <path stroke="#CC766D" stroke-linecap="round" stroke-linejoin="round" d="M301.24 118.978a36.01 36.01 0 0 1-1.652 5.079c-3.175 7.932-11.558 22.26-30.462 21.17a23.21 23.21 0 0 1-7.51-1.616"/>
            <path fill="#000035" fill-rule="nonzero" d="M301.48 114.485l8.079-5.694c6.368-2.549 13.55-14.06 14.874-23.122 2.477-16.989-9.098-20.17-9.098-20.17-3.726-29.67-51.551-41.311-64.34-16.707 0 0-5.858 9.83-.884 17.932 4.645 7.615 23.21 12.249 30.081 12.132 6.872-.117 13.55.304 15.928 5.993a10.058 10.058 0 0 1-.585 8.95s4.885 3.217 3.24 8.161c-2.854 8.582 2.706 12.525 2.706 12.525z"/>
            <path fill="#000035" fill-rule="nonzero" d="M286.455 103.378l19.085-.475.627-1.336-19.677-.45z"/>
            <path fill="#FFB5AB" fill-rule="nonzero" d="M300.573 109.365s2.436-10.229 9.255-9.373c6.82.855 3.814 12.53 3.814 12.53s-2.091 8.494-9.238 9.303c-7.147.808-5.536-7.65-5.536-7.65"/>
            <path stroke="#CC766D" stroke-linecap="round" stroke-linejoin="round" d="M306.917 115.568c4.61-3.731 3.17-11.57-1.101-10.187a4.33 4.33 0 0 1 0 4.435"/>
            <path stroke="#000035" stroke-linecap="round" stroke-linejoin="round" stroke-width="5" d="M285.517 89.13s-4.17-4.393-9.103-4.1M255.506 84.749s3.357-3.058 9.074-.855"/>
            <ellipse cx="273.312" cy="103.288" fill="#000035" fill-rule="nonzero" rx="3.081" ry="2.238" transform="rotate(-78.69 273.312 103.288)"/>
            <ellipse cx="255.508" cy="100.956" fill="#000035" fill-rule="nonzero" rx="3.081" ry="2.238" transform="rotate(-78.69 255.508 100.956)"/>
            <ellipse cx="273.77" cy="104.872" fill="#FFF" fill-rule="nonzero" rx="1.078" ry="1" transform="rotate(-78.69 273.77 104.872)"/>
            <ellipse cx="256.068" cy="102.173" fill="#FFF" fill-rule="nonzero" rx="1.078" ry="1" transform="rotate(-78.69 256.068 102.173)"/>
            <path fill="#C6CACE" fill-rule="nonzero" d="M313.993 158.432l-16.9 9.344s-9.684 10.18-10.545 16.555c0 0-8.482-12.12-14.686-14.1l-12.741-.78 4 15.536 22.35 4.1 27.901-13.262.621-17.393z"/>
            <path stroke="#CC766D" stroke-linecap="round" stroke-linejoin="round" d="M262.964 101.415a51.07 51.07 0 0 1-5.94 13.954 1.992 1.992 0 0 0 .656 2.753c1.493.89 3.954 1.629 6.988-.199"/>
            <path fill="#000035" fill-rule="nonzero" d="M272.875 116.383c.293.058.586.1.885.134 3.223.296 6.407-.88 8.664-3.198a15.817 15.817 0 0 0 2.086-19.455 10.744 10.744 0 0 0-7.792-4.962c-6.39-.685-12.255 4.95-13.069 12.566-.773 7.258 3.31 13.731 9.226 14.915zm4.535-26.327a9.83 9.83 0 0 1 6.239 4.382 14.803 14.803 0 0 1-1.94 18.16 9.707 9.707 0 0 1-7.838 2.93c-5.858-.628-9.958-6.86-9.191-13.908.767-7.047 6.104-12.272 11.933-11.646.27-.011.533.03.797.082zM248.488 112.844c.293.059.586.106.885.14a10.767 10.767 0 0 0 8.67-3.198 15.817 15.817 0 0 0 2.056-19.454 10.72 10.72 0 0 0-7.791-4.962c-6.391-.686-12.255 4.95-13.07 12.565-.75 7.253 3.334 13.726 9.25 14.91zm4.534-26.326a9.894 9.894 0 0 1 6.245 4.382 14.821 14.821 0 0 1-1.945 18.16 9.724 9.724 0 0 1-7.838 2.929c-5.823-.627-9.959-6.866-9.191-13.907.767-7.041 6.104-12.273 11.933-11.652a3.73 3.73 0 0 1 .796.088z"/>
            <path fill="#000035" fill-rule="nonzero" d="M261.821 101.632c.973-.387 2.273.252 2.285.258l.469-.92c-.065-.041-1.717-.861-3.134-.299l.38.96z"/>
            <path stroke="#CC766D" stroke-linecap="round" stroke-linejoin="round" d="M256.069 127.378s7.668 1.863 8.998 1.799"/>
            <path fill="#000035" fill-rule="nonzero" d="M263.409 43.25l-6.333-1.868s.68-19.227 19.426-16.128c0 0-8.16 8.87 1.312 10.217l-14.405 7.78z"/>
            <path fill="#BF4545" fill-rule="nonzero" d="M225.466 308.873l3.609.908s-3.867 7.692-9.291 11.88c-5.425 4.19-9.408 5.624-9.408 5.624s.632-10.304 4.815-13.198c4.183-2.894 10.275-5.214 10.275-5.214z"/>
            <path fill="#FFB5AB" fill-rule="nonzero" d="M229.385 311.41s13.374 10.158 12.554 16.526c-.82 6.367-14.598 19.331-14.962 19.448-.363.118-10.75-4.739-14.205-5.272-3.457-.533 1.3-6.578 7.908-4.645 6.608 1.933 7.522-3.656 7.522-3.656s-4.177-2.407-9.79-5.483c-5.611-3.075-6.35-11.2-6.35-11.2l-6.484-3.515 8.4-11.406 15.407 9.203z"/>
            <path fill="#EF7575" fill-rule="nonzero" d="M354.953 218.196l21.552-32.383c-4.065-6.725-24.914-30.462-62.564-26.397 0 0-17.85 25.711-27.498 28.634 0 0-18.664-8.845-26.397-28.411 0 0-15.06-1.957-24.446.949-9.56 2.958-20.063 6.977-30.051 20.638l29.15 42.553s-2.244 42.412-3.516 57.134c-1.423 17.041-9.162 70.455-9.162 70.455l139.886-.123s-4.382-48.036-5.683-66.66c-1.09-15.88-1.27-66.389-1.27-66.389z"/>
            <path stroke="#BF4545" d="M262.542 174.167s10.48 16.988 24.387 19.056c0 0 14.311-5.173 21.792-21.165"/>
            <path stroke="#C5E1EA" stroke-width="3" d="M0 351.24h413.85"/>
            <path fill="#BF4545" fill-rule="nonzero" d="M363.629 305.792l-3.89.586s3.246 8.5 8.512 13.473c5.266 4.974 9.303 6.907 9.303 6.907s.427-10.902-3.668-14.393c-4.094-3.492-10.257-6.573-10.257-6.573z"/>
            <path fill="#FFB5AB" fill-rule="nonzero" d="M347.97 317.461s-12.243 12.888-10.287 19.332c1.957 6.444 18.489 17.768 18.864 17.797.374.03 10.421-6.754 13.936-7.908 3.515-1.155-2.472-6.65-9.04-3.515-6.566 3.134-8.464-2.543-8.464-2.543s3.948-3.222 9.29-7.375c5.343-4.153 4.746-12.753 4.746-12.753l6.174-4.745-10.69-10.486-14.529 12.196z"/>
            <path fill="#EF7575" fill-rule="nonzero" d="M342.985 189.86l23.233-15.289s45.875 37.252 54.48 64.908c8.606 27.656-43.144 87.29-43.144 87.29s-4.03-8.382-7.083-11.856c-3.052-3.474-10.732-8.535-10.732-8.535s21.57-29.976 19.062-45.476c-3.18-19.695-35.693-34.364-35.693-34.364l-.123-36.677z"/>
            <path stroke="#BF4545" d="M356.242 202.596l-1.851 30.357"/>
            <path fill="#EF7575" fill-rule="nonzero" d="M221.324 316.864c2.748-2.343 5.554-4.558 8.342-6.825-5.805-8.113-19.618-28.792-19.466-41.551.181-15.571 32.547-49.43 32.547-49.43l-37.198-37.832s-40.04 55.81-38.594 85.153c.967 19.671 25.32 44.797 43.49 60.924 3.365-3.743 7.001-7.232 10.88-10.44z"/>
            <path stroke="#BF4545" d="M235.179 204.33l-.633 24.317M228.167 306.9l-5.325 38.838"/>
            <path fill="#000" fill-rule="nonzero" d="M355.316 232.953l.07.252c9.62 6.133 21.799 16.033 23.685 27.702 2.085 12.888-12.513 35.834-17.463 43.157 0 0 20.609-15.114 22.952-40.157 2.343-25.044-29.244-30.954-29.244-30.954zM234.862 213.674s-28.206 35.734-24.486 52.84c1.68-10.645 15.002-27.656 24.018-38.16l.468-14.68zM253.948 181.94v3.04s1.564.346 3.562-1.516c1.997-1.863 13.532-9.004 20.849-8.706 0 0-1.617-1.757-2.513-2.073-.897-.317-12.414 2.472-12.414 2.472l-9.484 6.783zM315.306 181.12l-.832 2.549a3.17 3.17 0 0 1-3.556-1.46c-1.242-2.126-8.998-10.842-15.477-12.67l1.593-1.758c.873 0 11.834 4.945 11.834 4.945l6.438 8.394z" opacity=".2"/>
            <path fill="#D5DAE0" fill-rule="nonzero" d="M304.99 148.532s8.511.058 11.03 10.585c2.056 8.612-.07 20.205-.92 24.141a.545.545 0 0 1-.995.17c-1.822-2.999-7.317-10.913-16.989-15.652 0 0 6.099-3.755 9.332-6.79a3.866 3.866 0 0 0 1.06-3.913l-2.518-8.541zM262.395 152.925l.586 8.518a3.322 3.322 0 0 0 1.623 2.636c2.853 1.693 9.25 5.618 12.384 9.373 0 0-17.434.527-22.63 11.26a.475.475 0 0 1-.902-.17c-.387-5.993-.82-24.616 8.94-31.617z"/>
        </g>
    </g>
</svg>
