<svg xmlns="http://www.w3.org/2000/svg" width="108" height="90" viewBox="0 0 108 90">
    <g fill="none" fill-rule="evenodd">
        <path fill="#0581A9" d="M84.727 47.383a1.966 1.966 0 1 1-3.931 0 1.966 1.966 0 0 1 3.93 0"/>
        <path stroke="#0581A9" stroke-linecap="round" stroke-linejoin="round" stroke-width="1.5" d="M97.623 47.383c0 8.208-6.654 14.862-14.862 14.862S67.9 55.591 67.9 47.383s6.654-14.862 14.862-14.862 14.862 6.654 14.862 14.862z"/>
        <path stroke="#0581A9" stroke-linecap="round" stroke-linejoin="round" stroke-width="1.5" d="M113.295 47.383c0 16.863-13.67 30.533-30.534 30.533-16.863 0-30.533-13.67-30.533-30.533 0-16.862 13.67-30.532 30.533-30.532 16.864 0 30.534 13.67 30.534 30.532z"/>
        <path stroke="#0581A9" stroke-linecap="round" stroke-linejoin="round" stroke-width="1.5" d="M128.762 47.383c0 25.405-20.595 46-46.002 46-25.404 0-45.998-20.595-45.998-46 0-25.404 20.594-46 45.998-46 25.407 0 46.002 20.596 46.002 46z"/>
        <g stroke="#0581A9" stroke-linecap="round" stroke-linejoin="round" stroke-width="1.5">
            <path d="M47.016 59.17L8.213 43.7M1.599 48.407l10.633 4.237 7.794-4.233-3.232-8.37-10.453-4.169L8.214 43.7z"/>
        </g>
    </g>
</svg>
