<?xml version="1.0" encoding="utf-8"?>
<!-- Generator: Adobe Illustrator 23.0.5, SVG Export Plug-In . SVG Version: 6.00 Build 0)  -->
<svg version="1.1" id="Layer_1" xmlns="http://www.w3.org/2000/svg" xmlns:xlink="http://www.w3.org/1999/xlink" x="0px" y="0px"
	 viewBox="0 0 50 50" style="enable-background:new 0 0 50 50;" xml:space="preserve">
<style type="text/css">
	.st0{fill-rule:evenodd;clip-rule:evenodd;fill:#FDBB4E;}
	.st1{fill-rule:evenodd;clip-rule:evenodd;fill:#753200;}
	.st2{fill:#753200;}
</style>
<path class="st0" d="M49.9,25.5c0,13.5-11,24.4-24.6,24.4C11.6,49.9,0.6,39,0.6,25.5c0-13.5,11-24.4,24.6-24.4
	C38.8,1.1,49.9,12.1,49.9,25.5"/>
<g>
	<path class="st1" d="M14,24.5c-1,0-1.8-0.8-1.8-1.8v-4.2c0-1,0.8-1.8,1.8-1.8s1.8,0.8,1.8,1.8v4.2C15.8,23.7,15,24.5,14,24.5
		 M36.4,24.5c-1,0-1.8-0.8-1.8-1.8v-4.2c0-1,0.8-1.8,1.8-1.8s1.8,0.8,1.8,1.8v4.2C38.2,23.7,37.4,24.5,36.4,24.5"/>
</g>
<path class="st2" d="M17,38h16c0.8,0,1.5-0.7,1.5-1.5S33.8,35,33,35H17c-0.8,0-1.5,0.7-1.5,1.5S16.2,38,17,38z"/>
</svg>
