<svg xmlns="http://www.w3.org/2000/svg" width="500" height="355" viewBox="0 0 500 355">
    <g fill="none" fill-rule="evenodd">
        <path fill="none" fill-opacity="0" d="M0 0h500v355H0z"/>
        <g transform="translate(34)">
            <path fill="#DCEEF9" fill-rule="nonzero" d="M422.563 277.646c-26.843 69.16-127.686 93.207-243.96 65.27C59.457 314.287-15.425 219.232 3.582 128.52 29.47 5.017 164.872-48.606 247.68 54.652c82.607 102.99 220.376 105.779 174.882 222.994z"/>
            <path fill="#A9D1DB" fill-rule="nonzero" d="M176.957 40.979L90.33 49.303a28.992 28.992 0 0 0-18.641 9.313l-58.721 64.216a6.63 6.63 0 0 0-1.037 7.432l7.23 14.492 108.68-6.395 62.951-79.251-7.238-14.492a6.63 6.63 0 0 0-6.597-3.639z"/>
            <path fill="#C5E1EA" fill-rule="nonzero" d="M230.353 138.466L63.746 221.6a5.609 5.609 0 0 1-7.53-2.52l-40.33-80.815 104.222-16.891 67.41-68.747 42.835 85.84z"/>
            <path fill="#E29840" fill-rule="nonzero" d="M212.214 120.206a5.195 5.195 0 0 1-5.098-5.147l-.122-18.115a22.978 22.978 0 0 1 45.956-.308l.121 17.79a5.187 5.187 0 0 1-10.366.074l-.122-17.831c-.047-6.965-5.731-12.574-12.696-12.527-6.965.047-12.573 5.732-12.526 12.697l.121 18.115a5.187 5.187 0 0 1-5.147 5.22l-.121.032z"/>
            <circle cx="233.003" cy="302.074" r="22.864" fill="#E29840" fill-rule="nonzero"/>
            <path fill="#FFC44D" fill-rule="nonzero" d="M325.587 282.184s-23.416-49.813-23.61-79.113l-.268-40.038c0-26.901-17.92-46.49-35.718-54.482a84.592 84.592 0 0 0-70.32.51c-17.53 8.227-36.472 28.052-36.432 54.936l.276 40.039c.194 29.291-22.127 80.045-22.127 80.045s41.579 14.151 94.7 13.779c49.967-.317 93.499-15.676 93.499-15.676z"/>
            <path stroke="#E29840" stroke-width="6" d="M148.427 255.308s71.324 26.641 165.65-1.11"/>
            <circle cx="300.972" cy="117.766" r="39.172" fill="#8EA0EF" fill-rule="nonzero"/>
            <path fill="#FFF" fill-rule="nonzero" d="M317.425 117.815c0 8.224-1.35 14.31-4.052 18.26-2.702 3.95-6.846 5.925-12.434 5.925-5.435 0-9.531-2.04-12.287-6.12-2.755-4.079-4.144-10.1-4.166-18.065 0-8.305 1.351-14.43 4.053-18.374 2.701-3.945 6.835-5.914 12.4-5.909 5.43 0 9.535 2.061 12.312 6.184 2.777 4.123 4.169 10.156 4.174 18.099zm-23.026 0c0 5.776.5 9.915 1.5 12.417.996 2.496 2.674 3.752 5.04 3.752 2.367 0 3.988-1.272 5.018-3.801 1.029-2.529 1.548-6.654 1.548-12.368s-.52-9.92-1.565-12.442c-1.045-2.52-2.707-3.785-5-3.785-2.294 0-4.053 1.257-5.026 3.785-.972 2.53-1.515 6.67-1.515 12.442z"/>
            <rect width="61.809" height="46.466" x="309.239" y="257.472" fill="#A9D1DB" fill-rule="nonzero" rx="5.74"/>
            <path fill="#FFF" fill-rule="nonzero" d="M331.406 265.853v30.118l24.858-15.002z"/>
        </g>
    </g>
</svg>
