<svg xmlns="http://www.w3.org/2000/svg" width="90" height="89" viewBox="0 0 90 89">
    <g fill="none" fill-rule="evenodd" stroke="#333DC6" stroke-linecap="round" stroke-linejoin="round" stroke-width="1.5">
        <path d="M68.733 46.349h24.25l7.461 7.461v-7.461a9.327 9.327 0 0 0 9.327-9.327V10.906c0-5.15-4.176-9.326-9.327-9.326h-48.5a9.328 9.328 0 0 0-9.326 9.327v24.249"/>
        <path d="M20.936 35.156h38.47c5.15 0 9.327 4.177 9.327 9.327v26.116c0 5.15-4.176 9.327-9.326 9.327H18.368l-7.462 7.46v-7.46c-5.15 0-9.327-4.177-9.327-9.327V44.483c0-5.15 4.177-9.327 9.328-9.327h10.03z"/>
        <path d="M43.222 56.288a.386.386 0 0 1-.358.24H38.62v9.683a.388.388 0 0 1-.387.388h-6.198a.388.388 0 0 1-.387-.388v-9.683h-4.26a.388.388 0 0 1-.274-.661l7.726-7.753a.39.39 0 0 1 .55-.001l7.75 7.753c.11.111.143.277.082.422z"/>
    </g>
</svg>
