<svg xmlns="http://www.w3.org/2000/svg" width="20" height="20" viewBox="0 0 20 20">
    <path fill="#555FF6" fill-rule="evenodd" stroke="#FFF" stroke-width=".4" d="M13.505 13.612c-.03.187-.078.37-.142.549a2.74 2.74 0 0 1-.242.426 2.81 2.81 0 0 1-.337.346 3.336 3.336 0 0 1-.598.351 5.071 5.071 0 0 1-1.114.294c-.093.01-.185.02-.278.028V11.009a7.26 7.26 0 0 1 1.222.376c.291.132.574.289.83.483.13.11.25.23.358.36.075.108.141.223.197.342.043.123.075.25.096.378.01.083.018.166.029.249a7.615 7.615 0 0 1-.026-.203c.027.205.025.414.005.618M8.11 8.906a4.233 4.233 0 0 1-.799-.47 3.226 3.226 0 0 1-.422-.43 2.906 2.906 0 0 1-.272-.479 2.757 2.757 0 0 1-.126-.467 3.216 3.216 0 0 1 .012-.57c.03-.192.077-.38.143-.56.067-.149.148-.29.24-.424.105-.128.22-.246.346-.354.206-.154.429-.281.662-.388a5.423 5.423 0 0 1 1.204-.317c.071-.009.143-.016.214-.022v4.829c-.41-.079-.813-.19-1.202-.348m.972-4.443a1.658 1.658 0 0 1-.1.066c.034-.024.067-.045.1-.066M13.381 6.315l-.1-.1.1.1m1.594 6.594l.006.051a3.124 3.124 0 0 0-.22-.985 3.153 3.153 0 0 0-.494-.814c-.324-.403-.765-.72-1.215-.956a7.551 7.551 0 0 0-2.258-.747V4.44h.007c.326.052.647.136.956.258.24.111.47.247.681.408.174.148.333.313.476.49.167.235.307.486.42.753.087.23.157.471.188.715l-.015-.112a.778.778 0 0 0 .206.458.74.74 0 0 0 .525.223c.19-.01.39-.075.524-.223.124-.14.24-.344.217-.54a3.943 3.943 0 0 0-.252-1.017c-.282-.712-.69-1.37-1.277-1.857a4.57 4.57 0 0 0-.613-.444 4.928 4.928 0 0 0-.746-.35 5.086 5.086 0 0 0-1.297-.293v-.462c0-.218.002-.437 0-.655v-.028c0-.399-.341-.782-.741-.763a.766.766 0 0 0-.742.763v1.133l-.026.002c-.752.07-1.471.235-2.163.555-.752.348-1.438.962-1.777 1.748-.108.25-.202.502-.254.77a5.04 5.04 0 0 0-.091.9c0 .06 0 .122.006.183.042.526.189 1.03.45 1.488.398.702 1.032 1.254 1.739 1.606a6.614 6.614 0 0 0 1.595.554c.173.036.347.065.521.09v4.837a5.717 5.717 0 0 1-.206-.02 4.777 4.777 0 0 1-1.029-.277 3.555 3.555 0 0 1-.657-.39 3.281 3.281 0 0 1-.41-.42 3.513 3.513 0 0 1-.335-.597 4.37 4.37 0 0 1-.22-.894c-.027-.175-.2-.37-.342-.456a.74.74 0 0 0-.57-.076.747.747 0 0 0-.444.351l-.074.183a.807.807 0 0 0 .004.4c.098.686.345 1.373.756 1.928.196.263.4.504.654.71.24.194.484.372.758.511.658.335 1.383.52 2.115.572v.731c0 .218-.002.437 0 .655v.028c0 .4.341.783.742.764a.766.766 0 0 0 .741-.764v-1.438c.36-.029.72-.079 1.073-.157.352-.078.686-.2 1.016-.347a3.566 3.566 0 0 0 1.957-2.19 3.729 3.729 0 0 0 .135-1.528"/>
</svg>
