<svg xmlns="http://www.w3.org/2000/svg" width="20" height="20" viewBox="0 0 20 20">
    <path fill="none" fill-rule="evenodd" stroke="#8F8FAA" stroke-linecap="round" stroke-linejoin="round" stroke-width="1.5" d="M2.187 15.288c.007-1.341.197-2.704.71-3.952a7.684 7.684 0 0 1 1.818-2.689c.69-.65 1.5-1.17 2.368-1.551.774-.34 1.586-.587 2.418-.743a13.935 13.935 0 0 1 1.812-.212c-.002-.538-.009-1.078.001-1.618a.84.84 0 0 1 .614-.8c.286-.079.56.008.782.191l.359.3 1.8 1.5 2.066 1.722c.238.196.475.396.712.593.103.085.222.166.313.267.3.336.299.872-.051 1.176-.024.022-.05.042-.076.063l-.522.434c-.65.54-1.297 1.083-1.947 1.623L13.39 13.24c-.19.16-.384.32-.575.48l-.108.09c-.237.195-.554.281-.85.162a.839.839 0 0 1-.543-.783v-1.61c-.407.013-.813.038-1.218.075-.158.012-.313.03-.47.046l-.248.031-.061.009c-.04.006-.08.01-.12.017-.35.05-.699.11-1.046.182-.732.151-1.453.355-2.144.635l-.064.025c-.045.019-.089.04-.133.058a7.845 7.845 0 0 0-1.213.664c-.075.052-.15.104-.224.16-.01.008-.02.016-.03.022l-.02.018a5.18 5.18 0 0 0-.88.87l-.022.03-.082.114a4.364 4.364 0 0 0-.404.709l-.027.06c-.018.044-.034.088-.05.132a.361.361 0 0 1-.18.218.3.3 0 0 1-.243.026c-.156-.05-.292-.22-.248-.391z"/>
</svg>
