<?xml version="1.0" encoding="utf-8"?>
<!-- Generator: Adobe Illustrator 23.0.5, SVG Export Plug-In . SVG Version: 6.00 Build 0)  -->
<svg version="1.1" id="Layer_1" xmlns="http://www.w3.org/2000/svg" xmlns:xlink="http://www.w3.org/1999/xlink" x="0px" y="0px"
	 viewBox="0 0 50 50" style="enable-background:new 0 0 50 50;" xml:space="preserve">
<style type="text/css">
	.st0{fill-rule:evenodd;clip-rule:evenodd;fill:#F34646;}
	.st1{fill-rule:evenodd;clip-rule:evenodd;fill:#6D0601;}
	.st2{fill:#6D0601;}
</style>
<path class="st0" d="M49.9,25.5c0,13.5-11,24.4-24.6,24.4C11.6,49.9,0.6,39,0.6,25.5c0-13.5,11-24.4,24.6-24.4
	C38.8,1.1,49.9,12.1,49.9,25.5"/>
<g>
	<path class="st1" d="M14,24.5c-1,0-1.8-0.8-1.8-1.8v-4.2c0-1,0.8-1.8,1.8-1.8s1.8,0.8,1.8,1.8v4.2C15.8,23.7,15,24.5,14,24.5
		 M36.4,24.5c-1,0-1.8-0.8-1.8-1.8v-4.2c0-1,0.8-1.8,1.8-1.8s1.8,0.8,1.8,1.8v4.2C38.2,23.7,37.4,24.5,36.4,24.5"/>
	<path class="st2" d="M32.7,37.4c0-0.1-0.1-0.4-0.3-0.8c-0.3-0.7-0.7-1.3-1.2-1.9C29.8,33,27.9,32,25.3,32c-2.6,0-4.5,1-5.9,2.7
		c-0.5,0.6-0.9,1.2-1.2,1.9c-0.2,0.4-0.3,0.7-0.3,0.8c-0.2,0.8-1,1.3-1.8,1c-0.8-0.2-1.3-1-1-1.8c0.3-1,0.9-2.4,2.1-3.8
		c1.9-2.3,4.6-3.8,8.2-3.8c3.5,0,6.3,1.4,8.2,3.8c1.2,1.4,1.8,2.8,2.1,3.8c0.2,0.8-0.2,1.6-1,1.9C33.8,38.6,32.9,38.2,32.7,37.4
		L32.7,37.4z"/>
</g>
</svg>
