<?xml version="1.0" encoding="utf-8"?>
<!-- Generator: Adobe Illustrator 23.0.3, SVG Export Plug-In . SVG Version: 6.00 Build 0)  -->
<svg version="1.1" id="Layer_1" xmlns="http://www.w3.org/2000/svg" xmlns:xlink="http://www.w3.org/1999/xlink" x="0px" y="0px"
	 viewBox="0 0 20 20" style="enable-background:new 0 0 20 20;" xml:space="preserve">
<style type="text/css">
	.st0{fill:#8F8FAA;}
</style>
<g>
	<path class="st0" d="M17.6,19c-0.2,0-0.4-0.1-0.5-0.2c-1.7-1.8-3.7-3.8-4.5-4.6c-1.1,0.8-2.5,1.3-4,1.3c-3.8,0-7-3-7-6.8V8.5
		c0-1.9,0.8-3.6,2.1-4.9c1.3-1.3,3.1-2,4.9-2c3.8,0,6.8,3.1,6.8,6.8v0c0,1.8-0.6,3.4-1.7,4.7c0.7,0.7,2,2,4.5,4.6
		c0.3,0.3,0.3,0.8,0,1.1C18,18.9,17.8,19,17.6,19z M8.5,3.1C7,3.1,5.7,3.7,4.7,4.7C3.6,5.7,3.1,7,3,8.5v0.1c0,3,2.5,5.4,5.4,5.4
		c0,0,0,0,0.1,0c1.2,0,2.3-0.4,3.2-1.1c0,0,0,0,0,0c0.1-0.2,0.3-0.4,0.5-0.4c1-1,1.6-2.4,1.6-3.9C13.9,5.5,11.5,3.2,8.5,3.1
		C8.5,3.1,8.5,3.1,8.5,3.1z"/>
</g>
</svg>
