<svg xmlns="http://www.w3.org/2000/svg" width="500" height="355" viewBox="0 0 500 355">
    <g fill="none" fill-rule="evenodd">
        <path fill="#FFF" fill-opacity="0" d="M0 0h500v355H0z"/>
        <g transform="translate(53)">
            <path fill="#DCEEF9" fill-rule="nonzero" d="M311.53 90.073c57.037 78.948 22.91 143.215-46.716 205.47-71.373 63.81-218.127 46.817-255.34-36.642-39.146-87.8 61.345-100.372 89.118-200.496 29.88-107.732 155.894-47.291 212.937 31.668z"/>
            <path fill="#5A43C9" fill-rule="nonzero" d="M205.046 193.045l13.002-4.268s27.388 56.354 47.416 74.618l-9.672 54.794c-37.93-20.142-55.494-63.878-55.494-63.878l4.748-61.266z"/>
            <path fill="#000" fill-rule="nonzero" d="M209.846 266.437l.458 6.84c8.914 14.34 23.9 33.448 45.488 44.912l1.199-6.784c-16.28-11.113-47.145-44.968-47.145-44.968z" opacity=".2"/>
            <path fill="#000035" fill-rule="nonzero" d="M138.93 81.684l-5.562-8.728s-7.18 9.683-14.2 46.602c-1.916 10.09-10.605 24.912-14.697 36.925-5.037 14.799-1.555 31.333-12.957 43.628l119.106 3.54s4.93-22.177 1.962-35.133c-2.685-11.736 8.338-26.625 6.45-50.548-1.131-14.483-1.334-29.712-1.334-29.712l-78.768-6.574z"/>
            <path fill="#FFB5AB" fill-rule="nonzero" d="M151.955 123.232l-12.403 57.219 28.276 27.761 17.948-16.84.424-43.736z"/>
            <path fill="#000035" fill-rule="nonzero" d="M193.582 101.44l17.434-39.383s10.079 6.314 7.631 21.385c-2.447 15.07-8.671 25.658-18.185 27.23-9.514 1.571-6.88-9.231-6.88-9.231z"/>
            <path fill="#000" fill-rule="nonzero" d="M186.126 156.002l-16.184-18.694-10.141 9.373 26.06 36.37z" opacity=".2"/>
            <path fill="#FFB5AB" fill-rule="nonzero" d="M155.63 92.34l-7.35 15.223.566 16.235s-.283 22.012 23.55 29.796c2.204.724 12.973 2.29 14.29 2.114 2.261-.3 17.558-4.143 19.536-31.023.656-8.92.565-26.003 3.392-35.641 2.826-9.638-30.95-15.223-30.95-15.223L155.63 92.34z"/>
            <path stroke="#CC766D" stroke-linecap="round" stroke-linejoin="round" d="M148.845 123.798s-.282 22.012 23.55 29.796c2.205.724 12.369 2.306 13.686 2.131"/>
            <path fill="#000035" fill-rule="nonzero" d="M146.822 120.971l-4.37-6.529c-6.291-4.098-9.734-18.032-11.006-27.998-2.408-18.892 12.838-22.143 12.838-22.143 16.58-33.284 66.138-21.39 72.08.3 0 0 6.59 26.947-22.047 30.339 0 0 11.459-6.326 11.363-8.48 0 0-1.544 1.629-7.818 1.736-3.613.057-7.016-3.307-11.493-3.2-6.704.164-8.445 5.467-14.471 6.219-3.533.424-11.413 4.403-12.476 10.175-.565 3.086-1.266 9.711-2.074 11.956-2.99 8.366-10.526 7.625-10.526 7.625z"/>
            <path fill="#FFB5AB" fill-rule="nonzero" d="M151.989 117.014s-.424-11.498-7.914-12.063c-7.49-.565-6.784 12.629-6.784 12.629s.424 9.559 7.914 11.961c7.49 2.403 7.586-7.015 7.586-7.015"/>
            <path stroke="#CC766D" stroke-linecap="round" stroke-linejoin="round" d="M143.854 122.283c-4.15-4.992-.921-13.098 3.364-10.695a4.737 4.737 0 0 0-.961 4.76"/>
            <path stroke="#000035" stroke-linecap="round" stroke-linejoin="round" stroke-width="5" d="M172.763 98.756s5.133-4.07 10.362-2.702M207.081 100.875a13.109 13.109 0 0 0-6.466-2.572"/>
            <ellipse cx="182.209" cy="114.131" fill="#000035" fill-rule="nonzero" rx="2.448" ry="3.369"/>
            <ellipse cx="201.807" cy="115.448" fill="#000035" fill-rule="nonzero" rx="2.448" ry="3.369"/>
            <ellipse cx="200.942" cy="116.788" fill="#FFF" fill-rule="nonzero" rx="1" ry="1.181"/>
            <ellipse cx="181.372" cy="115.731" fill="#FFF" fill-rule="nonzero" rx="1" ry="1.181"/>
            <path stroke="#CC766D" stroke-linecap="round" stroke-linejoin="round" d="M193.633 113.329a55.771 55.771 0 0 0 3.392 16.246c.418 1.13-3.448 2.425-8.745 1.102"/>
            <path stroke="#C5E1EA" stroke-width="3" d="M10.147 342.75h383.45"/>
            <path stroke="#CC766D" stroke-linecap="round" stroke-linejoin="round" d="M184.696 141.887s6.258.186 7.954.848"/>
            <path fill="#000035" fill-rule="nonzero" d="M140.44 88.185l-15.433 36.348s18.372 5.449 27.196-13.567c5.195-11.227-11.763-22.781-11.763-22.781z"/>
            <path fill="#403399" fill-rule="nonzero" d="M267.697 204.668a15.263 15.263 0 0 1-1.48-1.572s-.368-1.266 4.742-1.396a114.98 114.98 0 0 1 24.019 2.368c9.542 1.973 9.406 2.635 9.344 3.166-.062.531-11.566 3.618-11.566 3.618l-25.059-6.184z"/>
            <circle cx="290.105" cy="139.128" r="17.349" fill="#FFF" fill-rule="nonzero" opacity=".5"/>
            <path fill="#FFF" fill-rule="nonzero" d="M273.638 144.612a17.433 17.433 0 0 0 2.674 5.053l26.795-22.012a17.343 17.343 0 0 0-4.443-3.607l-25.026 20.566zM276.702 151.22c.6 1.809 1.13.034 2.261 1.566l26.79-22.013c-1.239-1.407.842-.768-.871-1.74l-28.18 22.187z" opacity=".7"/>
            <path stroke="#000035" stroke-width="4" d="M287.188 157.274l-1.272 11.244"/>
            <circle cx="290.105" cy="139.128" r="18.14" stroke="#000035" stroke-width="4"/>
            <path fill="#FFB5AB" fill-rule="nonzero" d="M274.164 169.111s3.154-5.087 12.583-4.245c9.43.842 12.148 2.442 13.047 5.02.492 1.396.978 5.127-.096 10.395-1.289 6.32-4.714 14.093-5.325 14.517l-.198 16.054-20.915-3.573 1.35-13.72s-6.868-2.549-5.194-17.444c.655-5.93 4.748-7.004 4.748-7.004z"/>
            <path stroke="#CC766D" stroke-linecap="round" stroke-linejoin="round" d="M276.261 172.135s13.228-5.014 24.07 1.996M276.335 177.58s13.516-4.094 23.352 2.701M279.252 183.108c6.488-.9 13.098.04 19.078 2.713M296.046 191.52c-9.48-4.173-14.906-3.144-14.906-3.144"/>
            <path fill="#FFB5AB" fill-rule="nonzero" stroke="#CC766D" stroke-linecap="round" stroke-linejoin="round" d="M272.197 166.612s-4.387-.124-4.229 6.354c.176 7.32.956 11.154 3.907 11.306 3.46.187 4.245-3.59 4.375-5.483.13-1.894.565-7.575.565-7.575s-.186-4.364-4.618-4.602z"/>
            <path stroke="#CC766D" stroke-linecap="round" stroke-linejoin="round" d="M286.12 188.625c.667 2.459-2.018 2.628-2.018 2.628-6.371.74-7.021-3.894-7.021-3.894s-.865-3.206 2.142-4.251M275.165 182.588s-.26 1.305 2.114 2.216M274.6 193.565s4.035 2.369 7.574 2.533"/>
            <path fill="#5A43C9" fill-rule="nonzero" d="M266.216 203.096s28.225 8.547 38.106 4.138c0 0-8.694 80.27-12.866 92.074 0 0-7.575 26.919-24.607 24.222-22.21-3.516-17.348-31.825-17.348-31.825s11.345-69.819 16.715-88.609zM218.048 188.806c-5.732-8.417-32.03-17.779-32.03-17.779.476 23.997-20.773 22.866-20.773 22.866s-23.07-1.13-22.533-28.032c0 0-43.792 1.243-56.885 19.937-13.657 19.503-24.177 42.742-33.221 85.33-7.31 34.41-10.645 49.18-9.345 65.822 1.43 18.338 28.333 17.666 28.333 17.666l94.56-11.871 30.289-.294c-7.349-26.981-4.986-43.799-4.986-43.799s11.52-4.737 16.06-14.816c6.218-13.838-1.696-46.043-1.696-46.043l12.227-48.987z"/>
            <path fill="#FFB5AB" fill-rule="nonzero" d="M164.871 307.516s13.285-2.685 15.829-3.25c2.543-.566 16.342-4.184 21.904 2.052 2.392 2.679 5.36 6.506 6.066 7.518 1.724 2.442 3.584 7.032 2.03 9.27-2.098 3.02-6.388 4.63-9.045 3.093-2.759-1.594-6.535-3.262-9.61-2.714-5.5.99-13.205 6.01-25.85 6.01l-1.324-21.98z"/>
            <path stroke="#CC766D" stroke-linecap="round" stroke-linejoin="round" d="M195.504 308.895s4.014.424 5.987 1.979c1.973 1.554 9.135 7.71 9.135 7.71M194.656 313.485s4.02.424 5.992 1.979c1.973 1.554 9.978 7.128 9.978 7.128M194.029 318.347s3.957.52 5.992 1.978c2.165 1.555 7.66 5.303 7.66 5.303"/>
            <path stroke="#000" d="M99.948 188.964s16.772 6.682 15.404 26.817c-1.837 27.027-19.005 97.478-19.005 97.478M209.806 272.468c.515-15.477-4.76-36.653-4.76-36.653s1.979-27.23 4.24-37.784" opacity=".3"/>
            <path fill="#000" fill-rule="nonzero" d="M274.6 310.246c-13.002 3.957-23.68-3.793-25.184-4.697 1.605 7.445 6.36 16.246 17.343 17.981 17.032 2.697 24.607-24.222 24.607-24.222 2.39-6.783 6.269-36.009 9.14-59.745-.056.43-13.906 67.037-25.907 70.683z" opacity=".2"/>
            <path stroke="#000" d="M256.013 253.48l-7.35 41.317s-1.367 12.94 6.62 22.86" opacity=".3"/>
            <path fill="#000" fill-rule="nonzero" d="M165.782 334.265s-96.783 19.277-110.35 5.941c-11.775-11.571 2.69-91.356 2.962-93.017 0 .073-.04.147-.062.22l-2.894 11.255a425.194 425.194 0 0 0-2.827 12.487c-7.309 34.409-10.644 49.18-9.344 65.822 1.43 18.338 28.332 17.665 28.332 17.665l94.561-11.87-.378-8.503z" opacity=".2"/>
            <path stroke="#000" d="M73.708 316.12s65.918-9.706 90.949-11.21c0 0 1.475 22.572 2.136 37.835" opacity=".3"/>
            <path fill="#000" fill-rule="nonzero" d="M115.171 218.06s-.983 61.192-10.593 93.718l-8.044 1.13c17.264-72.52 18.637-94.849 18.637-94.849z" opacity=".2"/>
            <path stroke="#8BC0C9" stroke-linecap="round" stroke-linejoin="round" stroke-width="2" d="M265.634 28.83c-.249.294-.492.565-.724.87"/>
            <path stroke="#8BC0C9" stroke-dasharray="4.09" stroke-linecap="round" stroke-linejoin="round" stroke-width="2" d="M261.694 34.482c-3.528 6.84-1.65 12.878 3.957 23.177 7.066 13.002-5.936 16.394-7.078 30.526-1.141 14.132 8.858 16.727 8.858 16.727s3.957 1.356 3.319 6.676"/>
            <path stroke="#8BC0C9" stroke-linecap="round" stroke-linejoin="round" stroke-width="2" d="M270.071 114.391c-.118.34-.254.696-.401 1.057"/>
        </g>
    </g>
</svg>
