<svg xmlns="http://www.w3.org/2000/svg" width="500" height="355" viewBox="0 0 500 355">
    <g fill="none" fill-rule="evenodd" transform="translate(48)">
        <path fill="#DCEEF9" fill-rule="nonzero" d="M364.107 108.823c49.557 88.845 1.466 154.062-85.271 214.03-88.911 61.476-247.19 30.539-274.256-61.35C-23.873 164.867 88.53 160.352 135.58 56.49c50.623-111.747 178.971-36.506 228.528 52.333z"/>
        <path fill="#FFB5AB" fill-rule="nonzero" d="M148.016 108.007l-17.077 58.372 29.288 25.416 24.617-24.915 2.085-29.883z"/>
        <path fill="#000" fill-rule="nonzero" d="M186.03 149.904l-.816-10.382-18.424-3.27-15.772-3.407 18.31 48.896 15.284-13.813z" opacity=".2"/>
        <path fill="#000035" fill-rule="nonzero" d="M193.29 87.827l18.364-41.498s10.62 6.653 8.041 22.533c-2.58 15.88-9.131 27.036-19.162 28.692-10.03 1.655-7.243-9.727-7.243-9.727z"/>
        <path fill="#FFB5AB" fill-rule="nonzero" d="M153.674 78.029l-7.743 17.869.596 19.06s.595 32.76 30.377 36.93c29.782 4.169 30.08-35.888 30.08-35.888s.596-30.526 3.574-41.843c2.978-11.317-32.611-17.87-32.611-17.87L153.674 78.03z"/>
        <path stroke="#CC766D" stroke-linecap="round" stroke-linejoin="round" d="M146.527 114.958c.086 2.05.327 4.091.72 6.105 1.787 9.691 8.03 27.793 29.657 30.825 2.94.448 5.933.404 8.857-.131"/>
        <path fill="#000035" fill-rule="nonzero" d="M147.277 109.788l-7.844-8.262c-6.63-4.318-12.151-18.929-11.591-29.502 1.042-19.787 14.843-20.746 14.843-20.746 10.918-32.694 69.29-27.929 74.627-2.269 0 0 6.952 28.394-23.23 31.968 0 0 2.782-3.377 3.378-6.254 0 0-3.777 3.371-8.637 3.77a15.57 15.57 0 0 0 2.085-3.175s-3.777.691-11.52-.994c-7.743-1.686-15.38-2.722-19.358 3.174a11.603 11.603 0 0 0-1.364 10.251s-6.254 2.532-5.51 8.488c1.293 10.382-5.879 13.55-5.879 13.55z"/>
        <path fill="#000035" fill-rule="nonzero" d="M166.773 100.627L145.3 95.784l-.411-1.655 22.354 3.93z"/>
        <path fill="#FFB5AB" fill-rule="nonzero" d="M149.457 104.237s-.446-12.116-8.339-12.711c-7.892-.596-7.147 13.306-7.147 13.306s.447 10.072 8.339 12.604c7.892 2.531 7.993-7.392 7.993-7.392"/>
        <path stroke="#CC766D" stroke-linecap="round" stroke-linejoin="round" d="M140.886 109.788c-4.372-5.26-.97-13.801 3.574-11.27a4.991 4.991 0 0 0-1.013 5.016"/>
        <path stroke="#000035" stroke-linecap="round" stroke-linejoin="round" stroke-width="5" d="M171.347 84.997s5.414-4.288 10.924-2.847M207.508 87.231a13.813 13.813 0 0 0-6.814-2.71"/>
        <ellipse cx="181.675" cy="103.486" fill="#000035" fill-rule="nonzero" rx="2.579" ry="3.55"/>
        <ellipse cx="202.32" cy="104.874" fill="#000035" fill-rule="nonzero" rx="2.579" ry="3.55"/>
        <ellipse cx="201.415" cy="106.286" fill="#FFF" fill-rule="nonzero" rx="1" ry="1.245"/>
        <ellipse cx="180.794" cy="105.172" fill="#FFF" fill-rule="nonzero" rx="1" ry="1.245"/>
        <path fill="#D5DAE0" fill-rule="nonzero" d="M126.472 157.647l19.46 10.77s13.895 12.508 14.89 19.846c0 0 7.047-14.736 14.194-17.017l14.695-.894-4.61 17.911-25.768 4.724-32.164-15.29-.697-20.05z"/>
        <path fill="#5A43C9" fill-rule="nonzero" d="M127.615 159.929l-3.294-2.282s-50.974 11.764-66.395 31.468c-16.082 20.55-25.112 55.394-27.548 77.73-4.617 42.29-4.617 84.283-4.617 84.283H234.98l10.662-92.92-1.114-43.367s-7.886-25.804-14.89-34.988c-6.755-8.87-27.019-13.354-37.43-18.292 0 0-13.873 22.193-31.159 26.142 0 0-19.804-8.982-28.322-16.356l-5.11-11.418z"/>
        <path stroke="#000" d="M119.396 158.892s6.73 25.833 41.355 35.214c0 0 21.693-3.871 37.567-30.02" opacity=".3"/>
        <path fill="#FFF" fill-rule="nonzero" d="M182.444 130.617s7.88 3.795 14.533.918c0 0-6.504 8.535-14.533-.918z"/>
        <path stroke="#CC766D" stroke-linecap="round" stroke-linejoin="round" d="M193.773 103.718a58.73 58.73 0 0 0 3.574 17.119 2.293 2.293 0 0 1-1.358 2.978c-1.895.673-4.843.947-7.857-1.787"/>
        <path fill="#000035" fill-rule="nonzero" d="M179.18 118.395c-.34 0-.685 0-1.03-.042a12.36 12.36 0 0 1-9.072-5.575 18.256 18.256 0 0 1 2.043-22.467 12.365 12.365 0 0 1 9.953-3.842c7.38.667 12.735 8.339 11.913 17.154-.769 8.357-6.85 14.772-13.807 14.772zm.828-30.783a11.377 11.377 0 0 0-8.047 3.574 17.071 17.071 0 0 0-1.906 20.949c2.054 2.978 4.967 4.765 8.201 5.057 6.731.595 12.8-5.51 13.54-13.646.738-8.137-4.134-15.255-10.86-15.862-.309-.06-.619-.072-.928-.072zM207.55 119.914c-.346.002-.692-.014-1.036-.048-3.574-.327-6.815-2.305-9.072-5.57a18.274 18.274 0 0 1 2.043-22.467 12.401 12.401 0 0 1 9.93-3.847c7.38.673 12.734 8.368 11.912 17.16-.739 8.38-6.82 14.772-13.777 14.772zm.822-30.789a11.365 11.365 0 0 0-8.041 3.544 17.071 17.071 0 0 0-1.906 20.949 11.192 11.192 0 0 0 8.202 5.063c6.724.595 12.794-5.51 13.539-13.646.744-8.137-4.134-15.255-10.859-15.862a9.932 9.932 0 0 0-.935-.048z"/>
        <path fill="#000035" fill-rule="nonzero" d="M195.012 104.237c-1.013-.656-2.627-.227-2.645-.22l-.322-1.15c.09 0 2.139-.596 3.616.369l-.65 1z"/>
        <path fill="#403399" fill-rule="nonzero" d="M232.114 210.308a17.59 17.59 0 0 1-2.383-.81s-1.072-1.114 4.14-4.033a134.209 134.209 0 0 1 26.113-10.662c10.936-3.169 11.156-2.382 11.383-1.828.226.554-9.99 10.024-9.99 10.024l-29.263 7.309z"/>
        <circle cx="219.516" cy="130.355" r="20.27" fill="#FFF" fill-rule="nonzero" opacity=".5"/>
        <path fill="#FFF" fill-rule="nonzero" d="M205.495 145.008a20.252 20.252 0 0 0 5.522 3.764l15.665-37.388a20.287 20.287 0 0 0-6.552-1.298l-14.635 34.922zM212.255 150.166c1.615 1.543 1.192-.595 3.229.37l15.671-37.365c-2.049-.774.447-1.245-1.852-1.316l-17.048 38.311z" opacity=".7"/>
        <path stroke="#000035" stroke-width="4" d="M226.402 150.702l4.819 12.312"/>
        <circle cx="219.516" cy="130.355" r="21.193" stroke="#000035" stroke-width="4"/>
        <path fill="#FFB5AB" fill-rule="nonzero" d="M219.391 170.049s.495-6.952 10.68-11.258c10.185-4.306 13.89-4.11 16.225-1.936 1.269 1.191 3.812 4.765 5.575 10.8 2.115 7.236 2.818 17.136 2.419 17.91l8.565 16.678-23.575 7.743-6.088-14.89s-8.488 1.119-14.89-15.196c-2.544-6.522 1.09-9.851 1.09-9.851z"/>
        <path stroke="#CC766D" stroke-linecap="round" stroke-linejoin="round" d="M223.215 172.014s10.936-12.395 25.964-11.067M226.265 177.607s11.734-11.603 25.612-9.953M232.263 181.74a40.89 40.89 0 0 1 21.199-7.605M254.242 181.258c-12.08.858-17.125 4.885-17.125 4.885"/>
        <path fill="#FFB5AB" fill-rule="nonzero" stroke="#CC766D" stroke-linecap="round" stroke-linejoin="round" d="M216.002 168.53s-4.598 2.263-.9 8.869c4.17 7.475 7.07 11.013 10.204 9.566 3.68-1.704 2.436-6.034 1.537-8.06-.9-2.024-3.574-8.136-3.574-8.136s-2.555-4.413-7.267-2.24z"/>
        <path stroke="#CC766D" stroke-linecap="round" stroke-linejoin="round" d="M242.424 183.683c2.038 2.168-.643 3.812-.643 3.812-6.183 4.247-9.381-.197-9.381-.197s-2.645-2.835-.113-5.557M227.772 183.39s.44 1.49 3.395 1.133M233.192 195.071s5.468.245 9.209-1.519"/>
        <path fill="#FFB5AB" fill-rule="nonzero" d="M163.431 314.199s13.998-2.83 16.678-3.425c2.68-.596 17.124-4.318 23.08 2.162 5.957 6.48 5.957 6.85 5.957 6.85l-2.978 16.75s-8.267-6.553-14.075-5.51c-5.807 1.042-13.95 6.331-27.298 6.331l-1.364-23.158z"/>
        <path stroke="#CC766D" stroke-linecap="round" stroke-linejoin="round" d="M197.21 316.915s4.229.447 6.307 2.085c2.08 1.638 5.957 4.83 5.957 4.83M195.482 320.971s4.235.447 6.314 2.085c2.079 1.638 6.23 5.14 6.23 5.14M195.173 326.54s4.169.548 6.307 2.085c2.288 1.638 5.957 3.973 5.957 3.973"/>
        <path stroke="#000" d="M63.93 328.196s72.668-13.503 99.078-15.087c0 0 1.09 21.937 1.787 38.02" opacity=".3"/>
        <path fill="#5A43C9" fill-rule="nonzero" d="M229.731 209.498s33.827-6.552 41.636-16.523c0 0 19.733 50.563 21.865 65.05l-46.596.16s-12.199-26.345-16.905-48.687z"/>
        <path stroke="#000" d="M229.731 209.498s8.387 36.304 16.905 48.687" opacity=".3"/>
        <path stroke="#C5E1EA" stroke-width="3" d="M0 351.128h404.039"/>
        <path fill="#A6D1E2" fill-rule="nonzero" d="M222.173 233.841h157.546l-17.125 118.681H206.24z"/>
        <path fill="#97B8C4" fill-rule="nonzero" d="M207.967 352.522h-4.747l15.975-118.68h4.747z"/>
        <circle cx="297.497" cy="291.976" r="12.288" fill="#FFF" fill-rule="nonzero"/>
        <path fill="#97B8C4" fill-rule="nonzero" d="M128.461 344.779h77.332v7.743h-77.332z"/>
        <path stroke="#000" d="M90.936 323.431s-6.755-74.454-7.743-95.7c-.99-21.247-6.951-27.4-6.951-27.4" opacity=".3"/>
        <path stroke="#B1AAE8" d="M250.507 66.503h60.124v41.456h-60.124z"/>
        <path fill="#8EA0EF" fill-rule="nonzero" d="M280.545 75.985a11.246 11.246 0 1 0 11.24 11.246c-.007-6.206-5.034-11.236-11.24-11.246zm5.832 11.556l-8.214 5.617a.381.381 0 0 1-.387 0 .375.375 0 0 1-.203-.334V81.602c0-.14.078-.269.203-.333a.375.375 0 0 1 .387 0l8.243 5.623a.37.37 0 0 1 .161.31.381.381 0 0 1-.167.357l-.023-.018z"/>
        <path stroke="#8EA0EF" d="M291.32 166.219h63.942v44.089H291.32z"/>
        <path fill="#8EA0EF" fill-rule="nonzero" d="M322.014 178.941c-.23.002-.454.066-.65.185l-.053.036-5.575 4.723h-4.378a.411.411 0 0 0-.411.411v7.815a.405.405 0 0 0 .119.292.423.423 0 0 0 .292.125h4.366l5.575 5.122.065.048c.196.12.42.183.65.185a1.293 1.293 0 0 0 1.28-1.299V180.24a1.293 1.293 0 0 0-1.28-1.299zm-5.73 12.759a.411.411 0 0 1-.822 0v-1.644a.411.411 0 0 1 .822 0v1.644zm0-5.36a.411.411 0 0 1-.822 0v-1.633a.411.411 0 0 1 .822 0v1.632zM332.366 188.221a8.023 8.023 0 0 0-5.444-7.594.417.417 0 0 0-.525.262.411.411 0 0 0 .257.518 7.195 7.195 0 0 1 0 13.629.411.411 0 0 0 .13.798.542.542 0 0 0 .138 0 8.03 8.03 0 0 0 5.444-7.613z"/>
        <path fill="#8EA0EF" fill-rule="nonzero" d="M329.245 178.536a.417.417 0 0 0-.546.538.411.411 0 0 0 .224.225 9.667 9.667 0 0 1-.286 17.923.417.417 0 0 0-.232.536.405.405 0 0 0 .53.232 10.495 10.495 0 0 0 .31-19.454z"/>
        <path fill="#8EA0EF" fill-rule="nonzero" d="M328.655 188.221a5.581 5.581 0 0 0-4.015-5.36.411.411 0 0 0-.506.286.405.405 0 0 0 .28.506 4.73 4.73 0 0 1 0 9.09.411.411 0 0 0 .113.803h.113a5.581 5.581 0 0 0 4.015-5.325z"/>
        <path stroke="#B1AAE8" d="M46.18 102.134h60.124v41.456H46.18z"/>
        <path fill="#8EA0EF" fill-rule="nonzero" d="M84.718 114.362c-4.52-4.525-11.795-4.706-16.535-.412-4.74 4.294-5.274 11.552-1.215 16.495a4.485 4.485 0 0 1-1.889 2.18 1.138 1.138 0 0 0-.595 1.19c.072.485.45.867.935.942.282.04.567.063.852.066a7.743 7.743 0 0 0 4.306-1.4 11.99 11.99 0 0 0 14.158-19.06h-.017zm-3.455 12.431H71.22a.679.679 0 1 1 0-1.352h10.043a.679.679 0 1 1 0 1.352zm0-3.276H71.22a.679.679 0 0 1 0-1.358h10.043a.679.679 0 0 1 0 1.358zm0-3.282H71.22a.679.679 0 1 1 0-1.352h10.043a.679.679 0 1 1 0 1.352z"/>
        <path fill="#000" fill-rule="nonzero" d="M127.526 183.159l-1.537 3.603s1.364.828 4.95-3.371c3.586-4.2 13.819-11.704 17.095-12.991a15.022 15.022 0 0 0-2.383-2.055s-9.03 4.17-11.466 7.22c-2.436 3.049-6.659 7.594-6.659 7.594z" opacity=".2"/>
        <path fill="#FFF" fill-rule="nonzero" d="M136.836 146.235s-9.816.071-12.717 12.205c-2.383 9.929.077 23.289 1.054 27.828a.625.625 0 0 0 1.15.196c2.102-3.46 8.434-12.58 19.608-18.047 0 0-7.028-4.33-10.757-7.821a4.48 4.48 0 0 1-1.221-4.515l2.883-9.846z"/>
        <path fill="#000" fill-rule="nonzero" d="M171.693 175.153c-.114 0-2.734.596-2.734.596s14.569 3.484 21.532 9.78c6.963 6.296 5.438.453 5.438.453l-6.218-9.483-18.018-1.346z" opacity=".2"/>
        <path fill="#FFF" fill-rule="nonzero" d="M185.934 151.84l-.69 9.28a3.848 3.848 0 0 1-1.877 3.038c-3.288 1.953-10.799 7.255-14.414 11.597 0 0 20.251-.179 26.208 12.198a.548.548 0 0 0 1.036-.202c.5-6.915.989-27.84-10.263-35.911z"/>
        <path fill="#000" fill-rule="nonzero" d="M77.028 201.38s10.942 6.05 12.43 35.982c1.49 29.93 7.63 84.973 7.63 84.973l-6.152 1.096-8.38-103.742a57.42 57.42 0 0 0-5.528-18.31z" opacity=".2"/>
    </g>
</svg>
