<svg xmlns="http://www.w3.org/2000/svg" width="20" height="20" viewBox="0 0 20 20">
    <path fill="none" fill-rule="evenodd" stroke="#8F8FAA" stroke-linecap="round" stroke-linejoin="round" stroke-width="1.5" d="M10.477 1.51l2.214 4.704a.534.534 0 0 0 .401.305l4.952.754c.436.066.61.628.295.95l-3.583 3.662a.574.574 0 0 0-.153.493l.845 5.17c.075.454-.381.802-.771.587l-4.43-2.44a.512.512 0 0 0-.495 0l-4.429 2.44c-.39.215-.846-.133-.772-.588l.846-5.169a.575.575 0 0 0-.152-.493L1.66 8.224c-.315-.323-.141-.885.295-.951l4.952-.754a.534.534 0 0 0 .4-.305L9.523 1.51a.521.521 0 0 1 .954 0z"/>
</svg>
